<?xml version="1.0" standalone="no"?>
<!DOCTYPE svg PUBLIC "-//W3C//DTD SVG 20010904//EN"
 "http://www.w3.org/TR/2001/REC-SVG-20010904/DTD/svg10.dtd">
<svg version="1.0" xmlns="http://www.w3.org/2000/svg"
 width="1163.000000pt" height="1240.000000pt" viewBox="0 0 1163.000000 1240.000000"
 preserveAspectRatio="xMidYMid meet">

<g transform="translate(0.000000,1240.000000) scale(0.100000,-0.100000)"
fill="#000000" stroke="none">
<path d="M0 6200 l0 -6200 5815 0 5815 0 0 6200 0 6200 -5815 0 -5815 0 0
-6200z m4488 5263 c-38 -2 -98 -2 -135 0 -38 2 -7 3 67 3 74 0 105 -1 68 -3z
m2255 0 c-7 -2 -21 -2 -30 0 -10 3 -4 5 12 5 17 0 24 -2 18 -5z m290 0 c-7 -2
-21 -2 -30 0 -10 3 -4 5 12 5 17 0 24 -2 18 -5z m-2360 -10 c-7 -2 -21 -2 -30
0 -10 3 -4 5 12 5 17 0 24 -2 18 -5z m2434 1 c-3 -3 -12 -4 -19 -1 -8 3 -5 6
6 6 11 1 17 -2 13 -5z m-2350 -10 c-3 -3 -12 -4 -19 -1 -8 3 -5 6 6 6 11 1 17
-2 13 -5z m-614 -11 c-7 -2 -19 -2 -25 0 -7 3 -2 5 12 5 14 0 19 -2 13 -5z
m3084 1 c-3 -3 -12 -4 -19 -1 -8 3 -5 6 6 6 11 1 17 -2 13 -5z m-750 -10 c-3
-3 -12 -4 -19 -1 -8 3 -5 6 6 6 11 1 17 -2 13 -5z m-1822 -129 c39 -16 38 -16
-60 -10 -55 3 -124 8 -152 12 -49 5 -53 4 -53 -15 0 -19 -3 -20 -37 -10 -42
11 -63 25 -63 41 0 16 316 0 365 -18z m2363 13 c-4 -13 -79 -56 -144 -84 -29
-12 -32 -12 -27 4 2 10 18 23 34 29 16 6 29 18 29 27 0 13 -14 16 -77 17 -53
0 -72 3 -58 9 11 5 71 9 133 9 87 1 113 -2 110 -11z m-306 -15 c-25 -3 -45
-10 -49 -18 -6 -17 -57 -28 -99 -23 l-29 4 30 13 c41 17 102 29 150 28 l40 0
-43 -4z m-2955 -9 c-3 -3 -12 -4 -19 -1 -8 3 -5 6 6 6 11 1 17 -2 13 -5z m116
-11 c-7 -2 -21 -2 -30 0 -10 3 -4 5 12 5 17 0 24 -2 18 -5z m3645 0 c-16 -2
-40 -2 -55 0 -16 2 -3 4 27 4 30 0 43 -2 28 -4z m-145 -20 c-7 -2 -21 -2 -30
0 -10 3 -4 5 12 5 17 0 24 -2 18 -5z m-879 -18 c-4 -8 -17 -18 -30 -21 -14 -4
-29 -14 -34 -24 -5 -10 -23 -21 -39 -25 -17 -3 -41 -15 -54 -25 -13 -11 -49
-29 -80 -40 -41 -16 -62 -30 -77 -56 -22 -35 -35 -40 -58 -25 -28 17 256 201
343 222 16 4 31 7 32 8 1 1 0 -6 -3 -14z m783 9 c-3 -3 -12 -4 -19 -1 -8 3 -5
6 6 6 11 1 17 -2 13 -5z m-1591 -32 c1 -7 2 -16 3 -22 0 -5 8 -10 17 -10 10 0
14 -6 10 -15 -3 -8 -1 -15 5 -15 6 0 9 -7 5 -15 -3 -8 -1 -15 4 -15 5 0 7 -7
4 -15 -4 -9 -1 -15 7 -15 10 0 10 -3 1 -12 -7 -7 -12 -39 -12 -75 0 -61 -1
-63 -25 -63 -16 0 -25 6 -25 16 0 12 -7 15 -25 12 -30 -6 -34 7 -5 15 17 4 20
14 20 61 0 32 -4 56 -10 56 -7 0 -7 6 0 19 17 33 12 61 -10 61 -13 0 -20 -7
-20 -19 0 -13 -6 -19 -19 -18 -17 1 -17 3 -4 37 9 19 17 38 20 43 7 11 58 2
59 -11z m1364 -31 c0 -5 -6 -12 -12 -15 -9 -4 -10 -8 -2 -11 6 -3 20 -12 30
-21 17 -13 16 -14 -21 -8 -63 10 -71 18 -46 43 21 21 51 28 51 12z m-1100 -14
c0 -2 -10 -12 -22 -23 l-23 -19 19 23 c18 21 26 27 26 19z m-1272 -22 c2 -2 0
-14 -3 -28 -5 -19 -16 -27 -46 -35 -47 -12 -50 -3 -6 22 l32 19 -27 9 c-42 14
-34 30 10 22 20 -4 38 -8 40 -9z m-371 -11 c-3 -3 -12 -4 -19 -1 -8 3 -5 6 6
6 11 1 17 -2 13 -5z m2403 2 c0 -2 -8 -10 -17 -17 -16 -13 -17 -12 -4 4 13 16
21 21 21 13z m-2473 -12 c-3 -3 -12 -4 -19 -1 -8 3 -5 6 6 6 11 1 17 -2 13 -5z
m-60 -10 c-3 -3 -12 -4 -19 -1 -8 3 -5 6 6 6 11 1 17 -2 13 -5z m1327 -34 c25
-10 46 -26 46 -34 0 -29 -18 -25 -61 14 -50 45 -48 48 15 20z m366 7 c0 -2
-12 -14 -27 -28 l-28 -24 24 28 c23 25 31 32 31 24z m-665 -57 c10 -11 16 -20
13 -20 -3 0 -13 9 -23 20 -10 11 -16 20 -13 20 3 0 13 -9 23 -20z m75 -65 c13
-14 21 -25 18 -25 -2 0 -15 11 -28 25 -13 14 -21 25 -18 25 2 0 15 -11 28 -25z
m795 6 c-3 -6 -11 -11 -16 -11 -5 0 -4 6 3 14 14 16 24 13 13 -3z m-655 -33
c12 -18 17 -27 9 -20 -20 19 -36 14 -43 -13 -5 -18 -11 -23 -23 -18 -11 4 -13
8 -5 11 7 2 12 12 12 22 0 24 10 50 19 50 4 0 18 -15 31 -32z m570 3 c0 -12
-11 -21 -32 -27 -24 -7 -35 -18 -41 -41 -11 -38 -59 -86 -80 -81 -12 2 -8 13
16 51 18 26 37 47 43 47 6 0 21 11 34 25 13 14 20 25 16 25 -4 0 -4 5 -1 10
11 18 45 11 45 -9z m-525 -59 c-3 -3 -11 0 -18 7 -9 10 -8 11 6 5 10 -3 15 -9
12 -12z m196 -79 c13 -16 12 -17 -3 -4 -14 11 -18 11 -18 1 0 -8 -3 -11 -6 -7
-5 5 3 27 10 27 2 0 10 -8 17 -17z m-36 -60 c-2 -27 -8 -40 -23 -46 -27 -12
-52 -2 -51 20 1 17 2 17 6 1 6 -24 33 -23 33 0 0 13 28 61 36 62 0 0 0 -17 -1
-37z m-2295 4 c0 -2 -15 -16 -32 -33 l-33 -29 29 33 c28 30 36 37 36 29z
m2347 -19 c-3 -8 -6 -5 -6 6 -1 11 2 17 5 13 3 -3 4 -12 1 -19z m2328 2 c10
-11 16 -20 13 -20 -3 0 -13 9 -23 20 -10 11 -16 20 -13 20 3 0 13 -9 23 -20z
m-4429 -5 c-1 -8 -8 -21 -14 -27 -18 -18 -14 -27 11 -21 18 4 19 2 6 -6 -9 -6
-36 -13 -60 -16 l-44 -6 48 45 c55 51 56 52 53 31z m2219 -15 c-4 -11 -2 -20
4 -20 6 0 11 -4 11 -10 0 -5 -6 -10 -14 -10 -8 0 -24 -14 -36 -31 -12 -16 -24
-28 -27 -25 -9 9 17 70 40 93 28 27 30 28 22 3z m-1830 1 c12 -21 -26 -30
-233 -56 -28 -3 -30 -2 -17 11 8 8 43 17 80 21 36 3 63 8 60 12 -3 3 -43 8
-88 12 -75 5 -70 6 55 7 77 1 139 -2 143 -7z m3810 -21 c10 -11 16 -20 13 -20
-3 0 -13 9 -23 20 -10 11 -16 20 -13 20 3 0 13 -9 23 -20z m310 -30 c10 -11
16 -20 13 -20 -3 0 -13 9 -23 20 -10 11 -16 20 -13 20 3 0 13 -9 23 -20z
m-4855 -4 c0 -2 -8 -10 -17 -17 -16 -13 -17 -12 -4 4 13 16 21 21 21 13z
m1447 -2 c-3 -3 -12 -4 -19 -1 -8 3 -5 6 6 6 11 1 17 -2 13 -5z m1623 -8 c0
-2 -7 -7 -16 -10 -8 -3 -12 -2 -9 4 6 10 25 14 25 6z m-2522 -23 c-10 -2 -26
-2 -35 0 -10 3 -2 5 17 5 19 0 27 -2 18 -5z m869 -55 l22 -23 -30 -1 c-23 -1
-29 3 -29 19 0 12 -10 32 -22 46 l-23 25 30 -21 c17 -12 40 -32 52 -45z m1613
53 c0 -5 -21 -21 -47 -36 -27 -15 -64 -42 -83 -59 -33 -30 -33 -30 5 16 22 25
48 47 58 47 9 1 17 7 17 15 0 9 7 12 20 9 11 -3 20 0 20 6 0 6 2 11 5 11 3 0
5 -4 5 -9z m1297 -7 c-3 -3 -12 -4 -19 -1 -8 3 -5 6 6 6 11 1 17 -2 13 -5z
m608 -24 c10 -11 16 -20 13 -20 -3 0 -13 9 -23 20 -10 11 -16 20 -13 20 3 0
13 -9 23 -20z m-4238 -6 c-3 -3 -12 -4 -19 -1 -8 3 -5 6 6 6 11 1 17 -2 13 -5z
m50 -10 c-3 -3 -12 -4 -19 -1 -8 3 -5 6 6 6 11 1 17 -2 13 -5z m2413 -18 c0
-2 -7 -7 -16 -10 -8 -3 -12 -2 -9 4 6 10 25 14 25 6z m-80 -58 c0 -10 -88 -67
-94 -61 -11 12 -6 29 20 69 l26 41 24 -22 c13 -12 24 -24 24 -27z m1946 10
l29 -33 -32 29 c-18 17 -33 31 -33 33 0 8 8 1 36 -29z m-3256 13 c0 -5 8 -7
19 -4 14 3 21 -3 29 -25 l10 -31 -51 31 c-66 38 -66 38 -34 38 15 0 27 -4 27
-9z m2989 -51 c108 -14 118 -33 16 -28 -57 2 -79 0 -78 -9 3 -12 -93 19 -111
37 -13 13 72 13 173 0z m-4519 -4 c0 -8 -31 -36 -41 -36 -5 0 -9 6 -9 14 0 8
-6 17 -12 19 -7 3 4 6 25 6 20 1 37 -1 37 -3z m-175 -31 c-44 -13 -88 -24 -97
-25 -10 0 -18 -4 -18 -10 0 -5 -17 -10 -37 -10 -35 0 -36 1 -17 15 10 8 35 17
54 21 19 4 49 13 65 20 17 7 53 13 80 13 l50 0 -80 -24z m5040 5 c10 -11 16
-20 13 -20 -3 0 -13 9 -23 20 -10 11 -16 20 -13 20 3 0 13 -9 23 -20z m-4555
-17 c-1 -5 -20 -28 -43 -53 -23 -25 -36 -38 -29 -30 19 25 15 57 -8 63 -39 10
-20 27 30 27 28 0 50 -3 50 -7z m1351 -10 c13 -16 12 -17 -3 -4 -10 7 -18 15
-18 17 0 8 8 3 21 -13z m2492 10 c-7 -2 -19 -2 -25 0 -7 3 -2 5 12 5 14 0 19
-2 13 -5z m-2832 -20 c13 -16 12 -17 -3 -4 -17 13 -22 21 -14 21 2 0 10 -8 17
-17z m2896 -9 c-3 -3 -12 -4 -19 -1 -8 3 -5 6 6 6 11 1 17 -2 13 -5z m-67 -39
c19 -19 32 -35 29 -35 -3 0 -20 16 -39 35 -19 19 -32 35 -29 35 3 0 20 -16 39
-35z m-3220 0 c13 -14 21 -25 18 -25 -2 0 -15 11 -28 25 -13 14 -21 25 -18 25
2 0 15 -11 28 -25z m791 8 c13 -16 12 -17 -3 -4 -17 13 -22 21 -14 21 2 0 10
-8 17 -17z m1779 13 c0 -2 -8 -10 -17 -17 -16 -13 -17 -12 -4 4 13 16 21 21
21 13z m1441 -13 c13 -16 12 -17 -3 -4 -17 13 -22 21 -14 21 2 0 10 -8 17 -17z
m-3006 -33 c10 -11 16 -20 13 -20 -3 0 -13 9 -23 20 -10 11 -16 20 -13 20 3 0
13 -9 23 -20z m1842 4 c-3 -3 -12 -4 -19 -1 -8 3 -5 6 6 6 11 1 17 -2 13 -5z
m120 0 c-3 -3 -12 -4 -19 -1 -8 3 -5 6 6 6 11 1 17 -2 13 -5z m-3141 -39 c40
-17 49 -31 23 -38 -12 -3 -22 0 -26 9 -3 8 -22 24 -42 35 -39 21 -14 18 45 -6z
m-341 -24 c-3 -6 -11 -11 -16 -11 -5 0 -4 6 3 14 14 16 24 13 13 -3z m1523
-108 c6 -53 -9 -56 -41 -8 -21 31 -23 39 -13 85 l10 50 19 -43 c11 -23 22 -61
25 -84z m-2021 89 c-9 -9 -29 -32 -44 -50 -20 -25 -32 -33 -50 -29 -21 4 -37
-7 -38 -24 0 -3 -13 -20 -28 -39 -19 -22 -31 -30 -38 -23 -12 12 144 161 179
169 12 4 22 11 22 17 0 6 3 7 7 4 3 -4 -1 -15 -10 -25z m4594 -9 c13 -16 12
-17 -3 -4 -17 13 -22 21 -14 21 2 0 10 -8 17 -17z m-4841 3 c0 -2 -8 -10 -17
-17 -16 -13 -17 -12 -4 4 13 16 21 21 21 13z m688 -19 c2 -25 -42 -75 -52 -59
-4 7 38 82 47 82 2 0 4 -11 5 -23z m698 -9 l29 -33 -32 29 c-18 17 -33 31 -33
33 0 8 8 1 36 -29z m2304 18 c0 -2 -8 -10 -17 -17 -16 -13 -17 -12 -4 4 13 16
21 21 21 13z m1436 -48 l29 -33 -32 29 c-31 28 -38 36 -30 36 2 0 16 -15 33
-32z m-3895 5 c13 -16 12 -17 -3 -4 -10 7 -18 15 -18 17 0 8 8 3 21 -13z
m2419 -6 c0 -2 -10 -12 -22 -23 l-23 -19 19 23 c18 21 26 27 26 19z m-1836
-18 c-2 -4 0 -10 5 -14 6 -3 8 -12 4 -20 -3 -8 0 -15 6 -15 6 0 11 -6 11 -13
0 -9 -10 -12 -31 -9 -26 4 -30 8 -25 26 3 11 6 28 6 37 0 9 7 16 15 16 8 0 12
-4 9 -8z m2002 -19 c-3 -36 -13 -48 -54 -59 l-31 -9 37 48 c20 27 40 49 44 49
3 1 5 -13 4 -29z m-2759 14 c-3 -3 -12 -4 -19 -1 -8 3 -5 6 6 6 11 1 17 -2 13
-5z m-1157 -17 c0 -2 -10 -12 -22 -23 l-23 -19 19 23 c18 21 26 27 26 19z
m4147 -30 c-36 -53 -61 -76 -86 -79 -44 -5 -33 21 23 52 30 17 60 38 66 45 22
26 20 16 -3 -18z m550 1 c-3 -8 -6 -5 -6 6 -1 11 2 17 5 13 3 -3 4 -12 1 -19z
m-1003 -7 c3 -5 -2 -19 -12 -32 -10 -13 -21 -32 -25 -41 -3 -10 -16 -18 -29
-18 l-22 0 22 20 c12 12 22 29 22 38 0 30 32 53 44 33z m-2977 -23 c-3 -8 -6
-5 -6 6 -1 11 2 17 5 13 3 -3 4 -12 1 -19z m3840 0 c-3 -8 -6 -5 -6 6 -1 11 2
17 5 13 3 -3 4 -12 1 -19z m-3366 -5 c13 -16 12 -17 -3 -4 -10 7 -18 15 -18
17 0 8 8 3 21 -13z m250 -23 c6 -16 16 -30 22 -30 18 0 57 -81 57 -117 0 -28
-4 -33 -23 -33 -29 0 -86 74 -89 116 -6 88 13 124 33 64z m1749 14 c0 -2 -13
-4 -30 -4 -16 0 -30 4 -30 8 0 5 14 7 30 4 17 -2 30 -6 30 -8z m780 12 c0 -2
-8 -10 -17 -17 -16 -13 -17 -12 -4 4 13 16 21 21 21 13z m1376 -28 l29 -33
-32 29 c-31 28 -38 36 -30 36 2 0 16 -15 33 -32z m-5209 10 c-2 -50 3 -58 33
-58 17 0 30 -4 30 -10 0 -9 -14 -12 -36 -9 -4 0 -10 -4 -13 -9 -6 -9 -92 -42
-111 -42 -19 0 -10 36 16 60 14 14 38 37 52 52 32 32 30 31 29 16z m810 -10
c-3 -8 -6 -5 -6 6 -1 11 2 17 5 13 3 -3 4 -12 1 -19z m930 16 c-3 -3 -12 -4
-19 -1 -8 3 -5 6 6 6 11 1 17 -2 13 -5z m1546 -1 c-7 -2 -19 -2 -25 0 -7 3 -2
5 12 5 14 0 19 -2 13 -5z m936 -20 c0 -16 -3 -22 -6 -15 -2 6 -9 10 -14 6 -5
-3 -9 4 -9 15 0 12 7 21 15 21 10 0 15 -9 14 -27z m-3124 -3 c10 -11 16 -20
13 -20 -3 0 -13 9 -23 20 -10 11 -16 20 -13 20 3 0 13 -9 23 -20z m-678 -82
c-2 -18 -4 -4 -4 32 0 36 2 50 4 33 2 -18 2 -48 0 -65z m-177 60 c0 -4 0 -10
0 -13 0 -3 -3 -5 -6 -4 -4 0 -11 -5 -15 -13 -7 -10 -9 -9 -9 5 0 16 -7 17 -67
12 -50 -4 -62 -3 -45 4 12 6 29 8 37 5 8 -4 15 -2 15 3 0 5 20 10 45 10 25 0
45 -4 45 -9z m1001 -15 c13 -16 12 -17 -3 -4 -10 7 -18 15 -18 17 0 8 8 3 21
-13z m2519 14 c0 -2 -12 -14 -27 -28 l-28 -24 24 28 c23 25 31 32 31 24z m120
-1 c0 -2 -8 -10 -17 -17 -16 -13 -17 -12 -4 4 13 16 21 21 21 13z m307 -18
c-3 -8 -6 -5 -6 6 -1 11 2 17 5 13 3 -3 4 -12 1 -19z m577 6 c3 -8 2 -12 -4
-9 -6 3 -10 10 -10 16 0 14 7 11 14 -7z m89 9 c-13 -2 -35 -2 -50 0 -16 2 -5
4 22 4 28 0 40 -2 28 -4z m-4086 -85 c-2 -18 -4 -6 -4 27 0 33 2 48 4 33 2
-15 2 -42 0 -60z m378 62 c10 -11 16 -20 13 -20 -3 0 -13 9 -23 20 -10 11 -16
20 -13 20 3 0 13 -9 23 -20z m3760 2 c-3 -3 -11 0 -18 7 -9 10 -8 11 6 5 10
-3 15 -9 12 -12z m-676 -77 c1 -52 -15 -95 -37 -103 -9 -3 -10 3 -2 23 5 14
10 43 10 64 0 21 3 53 7 72 5 28 7 30 14 14 4 -11 8 -42 8 -70z m-4509 61 c0
-2 -8 -10 -17 -17 -16 -13 -17 -12 -4 4 13 16 21 21 21 13z m1097 -18 c-3 -8
-6 -5 -6 6 -1 11 2 17 5 13 3 -3 4 -12 1 -19z m4270 -24 c-3 -3 -23 -2 -44 4
-34 9 -36 11 -15 17 12 4 22 12 22 18 0 6 10 2 22 -10 12 -13 19 -25 15 -29z
m-1255 24 c-8 -8 -7 -20 3 -46 15 -33 14 -35 -17 -71 -64 -74 -80 -61 -41 31
25 59 49 98 62 98 3 0 0 -5 -7 -12z m-1435 -30 c-3 -8 -6 -5 -6 6 -1 11 2 17
5 13 3 -3 4 -12 1 -19z m831 15 c-16 -2 -40 -2 -55 0 -16 2 -3 4 27 4 30 0 43
-2 28 -4z m-1495 -10 c-7 -2 -19 -2 -25 0 -7 3 -2 5 12 5 14 0 19 -2 13 -5z
m2247 3 c0 -3 -4 -8 -10 -11 -5 -3 -10 -1 -10 4 0 6 5 11 10 11 6 0 10 -2 10
-4z m577 -18 c-3 -8 -6 -5 -6 6 -1 11 2 17 5 13 3 -3 4 -12 1 -19z m-1500 -3
c0 -8 -9 -17 -19 -21 -10 -3 -32 -17 -48 -31 -17 -14 -37 -22 -45 -19 -23 9
-18 25 12 37 14 5 31 16 37 24 9 11 23 17 57 24 3 0 6 -6 6 -14z m-2480 -17
c-3 -8 -6 -5 -6 6 -1 11 2 17 5 13 3 -3 4 -12 1 -19z m3353 8 c0 -2 -7 -7 -16
-10 -8 -3 -12 -2 -9 4 6 10 25 14 25 6z m230 -9 c0 -2 -12 -14 -27 -28 l-28
-24 24 28 c23 25 31 32 31 24z m-3145 -37 c10 -11 16 -20 13 -20 -3 0 -13 9
-23 20 -10 11 -16 20 -13 20 3 0 13 -9 23 -20z m3995 -36 c0 -20 -35 -43 -58
-38 -21 6 -21 7 -5 38 10 17 16 35 15 39 -1 5 9 0 22 -10 14 -10 26 -23 26
-29z m351 29 c13 -16 12 -17 -3 -4 -10 7 -18 15 -18 17 0 8 8 3 21 -13z
m-4132 -46 c1 -17 0 -17 -30 0 -36 21 -61 47 -36 37 9 -3 24 -1 34 5 19 10 31
-5 32 -42z m2721 50 c0 -2 -10 -12 -22 -23 l-23 -19 19 23 c18 21 26 27 26 19z
m-3346 -23 c3 -8 2 -12 -4 -9 -6 3 -10 10 -10 16 0 14 7 11 14 -7z m1993 -26
c-3 -7 -5 -2 -5 12 0 14 2 19 5 13 2 -7 2 -19 0 -25z m303 29 c0 -2 -12 -14
-27 -28 l-28 -24 24 28 c23 25 31 32 31 24z m1200 -11 c0 -2 -8 -10 -17 -17
-16 -13 -17 -12 -4 4 13 16 21 21 21 13z m-2999 -43 c13 -16 12 -17 -3 -4 -10
7 -18 15 -18 17 0 8 8 3 21 -13z m357 -3 c-7 -10 -14 -17 -17 -15 -4 4 18 35
25 35 2 0 -1 -9 -8 -20z m-518 -15 c13 -14 21 -25 18 -25 -2 0 -15 11 -28 25
-13 14 -21 25 -18 25 2 0 15 -11 28 -25z m-110 -10 c13 -14 21 -25 18 -25 -2
0 -15 11 -28 25 -13 14 -21 25 -18 25 2 0 15 -11 28 -25z m4117 19 c-3 -3 -12
-4 -19 -1 -8 3 -5 6 6 6 11 1 17 -2 13 -5z m-2117 -27 c0 -14 -36 -49 -67 -66
-32 -16 -29 -5 13 46 33 40 54 48 54 20z m1340 19 c0 -2 -8 -10 -17 -17 -16
-13 -17 -12 -4 4 13 16 21 21 21 13z m-4075 -33 c-9 -40 -33 -62 -71 -69 -19
-3 -32 -10 -29 -14 3 -5 2 -10 -2 -12 -5 -1 -20 -18 -35 -36 -15 -17 -29 -28
-33 -23 -7 13 44 71 105 117 28 22 48 44 46 51 -3 7 2 13 10 13 13 0 15 -6 9
-27z m2086 10 c13 -16 12 -17 -3 -4 -10 7 -18 15 -18 17 0 8 8 3 21 -13z
m1679 -43 c0 -44 12 -50 43 -22 19 17 20 16 8 -6 -12 -22 -71 -65 -79 -58 -7
8 11 126 19 126 5 0 9 -18 9 -40z m1041 23 c13 -16 12 -17 -3 -4 -10 7 -18 15
-18 17 0 8 8 3 21 -13z m-765 -18 c2 -28 -47 -73 -79 -72 -13 0 -6 13 30 49
26 26 47 48 48 48 0 0 1 -11 1 -25z m164 10 c0 -2 -10 -9 -22 -15 -22 -11 -22
-10 -4 4 21 17 26 19 26 11z m-2901 -62 c-16 -19 -29 -38 -29 -42 0 -5 -11
-16 -24 -24 -23 -15 -23 -14 7 41 34 66 57 89 68 70 5 -7 -5 -26 -22 -45z
m-464 -13 c33 -33 57 -60 54 -60 -2 0 -31 27 -64 60 -33 33 -57 60 -54 60 2 0
31 -27 64 -60z m-1055 47 c0 -2 -15 -16 -32 -33 l-33 -29 29 33 c28 30 36 37
36 29z m1207 -3 c-3 -3 -12 -4 -19 -1 -8 3 -5 6 6 6 11 1 17 -2 13 -5z m1184
-31 c13 -16 12 -17 -3 -4 -10 7 -18 15 -18 17 0 8 8 3 21 -13z m459 14 c0 -2
-10 -12 -22 -23 l-23 -19 19 23 c18 21 26 27 26 19z m2661 -44 c13 -16 12 -17
-3 -4 -10 7 -18 15 -18 17 0 8 8 3 21 -13z m-1162 4 c-2 -1 -13 -9 -24 -17
-19 -14 -19 -14 -6 3 7 9 18 17 24 17 6 0 8 -1 6 -3z m-4439 -20 c0 -2 -15
-16 -32 -33 l-33 -29 29 33 c28 30 36 37 36 29z m797 -29 c-3 -7 -5 -2 -5 12
0 14 2 19 5 13 2 -7 2 -19 0 -25z m3413 18 c0 -2 -8 -10 -17 -17 -16 -13 -17
-12 -4 4 13 16 21 21 21 13z m-1360 -20 c0 -2 -8 -10 -17 -17 -16 -13 -17 -12
-4 4 13 16 21 21 21 13z m1540 0 c0 -2 -8 -10 -17 -17 -16 -13 -17 -12 -4 4
13 16 21 21 21 13z m1061 -23 c13 -16 12 -17 -3 -4 -10 7 -18 15 -18 17 0 8 8
3 21 -13z m-4676 -3 c-3 -5 -14 -10 -23 -9 -14 0 -13 2 3 9 27 11 27 11 20 0z
m745 -3 c0 -2 -17 -19 -37 -38 l-38 -34 34 38 c33 34 41 42 41 34z m-1830 -10
c0 -2 -10 -12 -22 -23 l-23 -19 19 23 c18 21 26 27 26 19z m605 -7 c7 -11 -17
-61 -38 -78 -12 -10 -16 -9 -21 3 -3 9 -11 13 -18 10 -7 -4 -2 3 12 14 14 11
31 21 38 21 10 0 10 5 2 20 -8 16 -8 20 4 20 8 0 18 -4 21 -10z m428 3 c-7 -2
-19 -2 -25 0 -7 3 -2 5 12 5 14 0 19 -2 13 -5z m3237 -50 c19 -21 29 -33 21
-26 -8 7 -23 8 -41 3 -25 -7 -29 -5 -34 16 -4 13 -10 24 -15 24 -5 0 -7 9 -4
20 7 25 25 16 73 -37z m-3295 37 c-27 -12 -43 -12 -25 0 8 5 22 9 30 9 10 0 8
-3 -5 -9z m1986 -17 c13 -16 12 -17 -3 -4 -10 7 -18 15 -18 17 0 8 8 3 21 -13z
m2454 7 c3 -6 -1 -7 -9 -4 -18 7 -21 14 -7 14 6 0 13 -4 16 -10z m430 -30 c10
-11 16 -20 13 -20 -3 0 -13 9 -23 20 -10 11 -16 20 -13 20 3 0 13 -9 23 -20z
m-5630 0 c-4 -6 7 -10 25 -10 29 0 30 -1 19 -22 -8 -14 -14 -18 -17 -10 -2 6
-15 12 -28 12 -35 0 -32 30 4 39 2 1 0 -3 -3 -9z m1232 -16 c-3 -3 -12 -4 -19
-1 -8 3 -5 6 6 6 11 1 17 -2 13 -5z m1530 -16 c-3 -8 -6 -5 -6 6 -1 11 2 17 5
13 3 -3 4 -12 1 -19z m70 0 c-3 -8 -6 -5 -6 6 -1 11 2 17 5 13 3 -3 4 -12 1
-19z m-2537 8 c0 -2 -8 -10 -17 -17 -16 -13 -17 -12 -4 4 13 16 21 21 21 13z
m620 -105 l0 -96 -65 -2 c-50 -1 -65 2 -65 13 0 8 -7 14 -15 14 -9 0 -15 9
-15 21 0 18 -2 19 -15 9 -13 -11 -14 -10 -9 3 3 9 16 20 27 24 18 6 14 9 -23
14 l-45 6 50 1 c48 2 51 0 62 -28 8 -22 18 -30 36 -30 31 0 42 37 27 89 -12
42 1 71 30 64 18 -5 20 -14 20 -102z m585 89 c7 -12 -49 -49 -88 -57 -15 -3
-32 -14 -38 -25 -7 -14 -17 -18 -32 -14 -11 3 -28 0 -36 -6 -14 -11 -14 -10
-1 4 15 17 169 108 182 108 4 0 10 -4 13 -10z m3508 -47 c-7 -2 -19 -2 -25 0
-7 3 -2 5 12 5 14 0 19 -2 13 -5z m670 -20 c31 -15 33 -25 12 -46 -8 -8 -11
-18 -7 -21 3 -4 -2 -4 -11 0 -10 3 -31 26 -48 51 l-30 44 28 -7 c15 -4 40 -13
56 -21z m77 4 c0 -1 4 -16 9 -34 7 -25 6 -31 -4 -26 -17 6 -56 69 -48 77 5 4
43 -10 43 -17z m-966 -3 c3 -8 2 -12 -4 -9 -6 3 -10 10 -10 16 0 14 7 11 14
-7z m289 9 c-7 -2 -21 -2 -30 0 -10 3 -4 5 12 5 17 0 24 -2 18 -5z m-4475 -10
c-10 -2 -28 -2 -40 0 -13 2 -5 4 17 4 22 1 32 -1 23 -4z m2219 -80 c-2 -16 -4
-3 -4 27 0 30 2 43 4 28 2 -16 2 -40 0 -55z m2633 22 c30 -30 52 -55 49 -55
-2 0 -29 25 -59 55 -30 30 -52 55 -49 55 2 0 29 -25 59 -55z m-5295 -2 c-14
-45 -55 -92 -83 -93 -19 0 12 57 56 103 20 20 37 37 39 37 1 0 -4 -21 -12 -47z
m2612 -15 c-2 -13 -4 -5 -4 17 -1 22 1 32 4 23 2 -10 2 -28 0 -40z m2013 7 c0
-41 -2 -45 -24 -45 -31 0 -42 36 -15 53 10 6 19 17 19 24 0 7 5 13 10 13 6 0
10 -20 10 -45z m71 18 c13 -16 12 -17 -3 -4 -10 7 -18 15 -18 17 0 8 8 3 21
-13z m-4921 3 c0 -2 -8 -10 -17 -17 -16 -13 -17 -12 -4 4 13 16 21 21 21 13z
m717 -72 c-3 -3 -12 -4 -19 -1 -8 3 -5 6 6 6 11 1 17 -2 13 -5z m3931 -45 c35
-13 26 -18 -28 -16 -40 2 -50 5 -50 20 0 18 20 17 78 -4z m442 -24 c19 -19 32
-35 29 -35 -3 0 -20 16 -39 35 -19 19 -32 35 -29 35 3 0 20 -16 39 -35z
m-4480 2 c0 -2 -10 -12 -22 -23 l-23 -19 19 23 c18 21 26 27 26 19z m4097 -13
c-3 -3 -12 -4 -19 -1 -8 3 -5 6 6 6 11 1 17 -2 13 -5z m-1291 -39 c20 -17 26
-27 19 -34 -8 -8 -22 1 -49 28 -28 29 -34 38 -19 35 11 -3 33 -16 49 -29z
m1745 -12 c13 -16 12 -17 -3 -4 -10 7 -18 15 -18 17 0 8 8 3 21 -13z m-4621
-16 c0 -2 -12 -14 -27 -28 l-28 -24 24 28 c23 25 31 32 31 24z m1750 0 c0 -2
-17 -19 -37 -38 l-38 -34 34 38 c33 34 41 42 41 34z m3401 -14 c13 -16 12 -17
-3 -4 -10 7 -18 15 -18 17 0 8 8 3 21 -13z m-5651 -28 c0 -8 -6 -18 -14 -22
-8 -4 -15 -17 -17 -27 -5 -25 -25 -31 -33 -11 -4 11 -2 14 6 9 8 -5 9 -2 5 9
-4 10 -1 17 5 17 6 0 9 3 6 6 -8 7 25 42 35 37 4 -2 7 -10 7 -18z m750 21 c0
-2 -8 -10 -17 -17 -16 -13 -17 -12 -4 4 13 16 21 21 21 13z m2047 -108 c-2
-18 -4 -6 -4 27 0 33 2 48 4 33 2 -15 2 -42 0 -60z m663 47 c19 -19 32 -35 29
-35 -3 0 -20 16 -39 35 -19 19 -32 35 -29 35 3 0 20 -16 39 -35z m-2470 21 c0
-2 -8 -10 -17 -17 -16 -13 -17 -12 -4 4 13 16 21 21 21 13z m1847 -113 c-2
-21 -4 -4 -4 37 0 41 2 58 4 38 2 -21 2 -55 0 -75z m-712 71 c14 -9 25 -20 25
-25 0 -12 -37 -11 -61 1 -16 9 -17 13 -7 25 16 18 14 18 43 -1z m1574 -14 c-6
-16 -24 -41 -40 -54 -16 -14 -29 -27 -29 -30 0 -2 15 -7 33 -9 31 -4 31 -4 -5
-5 -40 -2 -45 6 -27 41 10 19 69 87 75 87 2 0 -2 -13 -7 -30z m992 3 c13 -16
12 -17 -3 -4 -10 7 -18 15 -18 17 0 8 8 3 21 -13z m-2671 -90 c0 -7 -11 -13
-26 -13 -23 0 -25 3 -20 26 5 20 1 33 -16 53 -12 14 -4 8 20 -14 23 -21 42
-45 42 -52z m-1690 -27 c0 -2 -7 -7 -16 -10 -8 -3 -12 -2 -9 4 6 10 25 14 25
6z m39 -66 c-34 -38 -64 -70 -67 -70 -6 0 17 26 87 103 60 64 45 40 -20 -33z
m461 56 c0 -2 -8 -10 -17 -17 -16 -13 -17 -12 -4 4 13 16 21 21 21 13z m3223
-42 c-1 -10 -10 -25 -20 -32 -64 -45 -127 -82 -135 -80 -13 5 50 76 95 109 44
32 63 33 60 3z m1168 9 c13 -16 12 -17 -3 -4 -10 7 -18 15 -18 17 0 8 8 3 21
-13z m-4431 4 c0 -2 -12 -14 -27 -28 l-28 -24 24 28 c23 25 31 32 31 24z
m3697 -19 c-3 -8 -6 -5 -6 6 -1 11 2 17 5 13 3 -3 4 -12 1 -19z m374 -5 c13
-16 12 -17 -3 -4 -10 7 -18 15 -18 17 0 8 8 3 21 -13z m-1464 -15 c-3 -8 -6
-5 -6 6 -1 11 2 17 5 13 3 -3 4 -12 1 -19z m-1560 -55 c-3 -10 -5 -2 -5 17 0
19 2 27 5 18 2 -10 2 -26 0 -35z m1978 1 c-10 -67 -11 -69 -66 -94 -44 -19
-63 -22 -144 -18 -52 2 -97 7 -100 10 -4 3 -3 27 0 51 8 50 19 53 62 14 14
-12 42 -22 73 -25 59 -5 77 7 105 68 15 34 23 40 48 40 29 0 29 0 22 -46z
m-2865 33 c0 -2 -10 -12 -22 -23 l-23 -19 19 23 c18 21 26 27 26 19z m4040
-84 c0 -8 -9 0 -50 45 l-45 47 48 -45 c26 -24 47 -45 47 -47z m-3269 50 c13
-16 12 -17 -3 -4 -10 7 -18 15 -18 17 0 8 8 3 21 -13z m2776 -45 c-2 -13 -4
-3 -4 22 0 25 2 35 4 23 2 -13 2 -33 0 -45z m-4239 16 c-1 -23 -9 -39 -21 -46
-18 -9 -19 -7 -12 28 8 45 12 54 26 54 5 0 9 -16 7 -36z m4552 -39 c35 -36 62
-65 59 -65 -2 0 -34 29 -69 65 -35 36 -62 65 -59 65 2 0 34 -29 69 -65z
m-4150 52 c0 -2 -12 -14 -27 -28 l-28 -24 24 28 c23 25 31 32 31 24z m-360
-11 c0 -2 -8 -10 -17 -17 -16 -13 -17 -12 -4 4 13 16 21 21 21 13z m527 -34
c-21 -21 -34 -41 -30 -45 11 -12 -117 -136 -139 -134 -13 1 11 31 89 109 59
59 110 108 112 108 3 0 -12 -17 -32 -38z m1104 21 c13 -16 12 -17 -3 -4 -10 7
-18 15 -18 17 0 8 8 3 21 -13z m1326 -30 c-3 -27 -10 -68 -15 -93 -8 -44 -9
-44 -13 33 -4 78 2 107 22 107 7 0 9 -18 6 -47z m100 15 c-3 -7 -5 -2 -5 12 0
14 2 19 5 13 2 -7 2 -19 0 -25z m1989 0 l29 -33 -32 29 c-31 28 -38 36 -30 36
2 0 16 -15 33 -32z m-2906 -10 c21 -30 22 -31 2 -14 l-21 19 6 -114 c4 -91 2
-121 -10 -149 -15 -33 -15 -28 -16 128 -1 89 3 162 7 162 5 0 19 -15 32 -32z
m-1313 -60 c-2 -18 -4 -6 -4 27 0 33 2 48 4 33 2 -15 2 -42 0 -60z m1187 55
c3 -16 7 -107 8 -204 3 -145 0 -178 -12 -190 -13 -14 -15 9 -15 203 0 202 6
258 19 191z m-1357 -95 c-2 -24 -4 -7 -4 37 0 44 2 63 4 43 2 -21 2 -57 0 -80z
m443 -4 c0 -67 -4 -103 -10 -99 -5 3 -10 27 -10 53 0 26 -5 54 -10 62 -7 10
-10 -20 -10 -95 -1 -86 -3 -106 -12 -91 -6 11 -10 61 -9 120 1 85 4 103 21
118 11 11 20 23 20 28 0 6 5 10 10 10 6 0 10 -42 10 -106z m547 60 c-3 -3 -12
-4 -19 -1 -8 3 -5 6 6 6 11 1 17 -2 13 -5z m2320 -16 c-3 -8 -6 -5 -6 6 -1 11
2 17 5 13 3 -3 4 -12 1 -19z m-2239 5 c-10 -2 -26 -2 -35 0 -10 3 -2 5 17 5
19 0 27 -2 18 -5z m1822 4 c0 -2 -12 -14 -27 -28 l-28 -24 24 28 c23 25 31 32
31 24z m457 -59 c-3 -7 -5 -2 -5 12 0 14 2 19 5 13 2 -7 2 -19 0 -25z m190
-15 c-3 -10 -5 -2 -5 17 0 19 2 27 5 18 2 -10 2 -26 0 -35z m614 30 c13 -16
12 -17 -3 -4 -10 7 -18 15 -18 17 0 8 8 3 21 -13z m-5091 -27 c0 -2 -8 -10
-17 -17 -16 -13 -17 -12 -4 4 13 16 21 21 21 13z m3688 -3 c-10 -2 -26 -2 -35
0 -10 3 -2 5 17 5 19 0 27 -2 18 -5z m-1750 -10 c-10 -2 -26 -2 -35 0 -10 3
-2 5 17 5 19 0 27 -2 18 -5z m1209 -90 c-2 -21 -4 -6 -4 32 0 39 2 55 4 38 2
-18 2 -50 0 -70z m1074 -16 c-11 -24 -40 -60 -63 -82 -23 -22 -34 -30 -23 -17
10 13 20 29 21 36 3 19 35 66 44 66 5 0 11 15 15 33 13 64 19 75 23 39 2 -19
-5 -51 -17 -75z m-3771 90 c0 -2 -12 -14 -27 -28 l-28 -24 24 28 c23 25 31 32
31 24z m4555 -67 c38 -38 67 -70 64 -70 -2 0 -36 32 -74 70 -38 39 -67 70 -64
70 2 0 36 -31 74 -70z m171 38 l29 -33 -32 29 c-31 28 -38 36 -30 36 2 0 16
-15 33 -32z m-4059 0 c-3 -8 -6 -5 -6 6 -1 11 2 17 5 13 3 -3 4 -12 1 -19z
m4559 -10 l29 -33 -32 29 c-31 28 -38 36 -30 36 2 0 16 -15 33 -32z m-5716 18
c0 -2 -8 -10 -17 -17 -16 -13 -17 -12 -4 4 13 16 21 21 21 13z m2517 -58 c-2
-13 -4 -3 -4 22 0 25 2 35 4 23 2 -13 2 -33 0 -45z m740 10 c-2 -13 -4 -5 -4
17 -1 22 1 32 4 23 2 -10 2 -28 0 -40z m1070 10 c-3 -7 -5 -2 -5 12 0 14 2 19
5 13 2 -7 2 -19 0 -25z m-4093 -9 c-10 -12 -17 -22 -14 -23 6 -2 -36 -56 -44
-56 -10 0 -7 40 4 60 6 11 16 17 24 14 7 -3 19 2 26 11 7 8 15 15 18 15 3 0
-3 -9 -14 -21z m166 -12 c0 -2 -15 -16 -32 -33 l-33 -29 29 33 c28 30 36 37
36 29z m-460 -10 c0 -2 -17 -19 -37 -38 l-38 -34 34 38 c33 34 41 42 41 34z
m1037 -29 c-3 -7 -5 -2 -5 12 0 14 2 19 5 13 2 -7 2 -19 0 -25z m4319 0 l29
-33 -32 29 c-31 28 -38 36 -30 36 2 0 16 -15 33 -32z m169 12 c10 -11 16 -20
13 -20 -3 0 -13 9 -23 20 -10 11 -16 20 -13 20 3 0 13 -9 23 -20z m693 -21
c18 -35 19 -44 7 -55 -12 -12 -14 -11 -18 3 -10 34 -18 93 -13 93 2 0 13 -19
24 -41z m-2701 -11 c-3 -7 -5 -2 -5 12 0 14 2 19 5 13 2 -7 2 -19 0 -25z
m1230 -45 c-2 -16 -4 -3 -4 27 0 30 2 43 4 28 2 -16 2 -40 0 -55z m-4127 54
c0 -2 -15 -16 -32 -33 l-33 -29 29 33 c28 30 36 37 36 29z m5290 -62 c30 -30
52 -55 49 -55 -2 0 -29 25 -59 55 -30 30 -52 55 -49 55 2 0 29 -25 59 -55z
m-136 30 c3 -8 1 -15 -4 -15 -6 0 -10 7 -10 15 0 8 2 15 4 15 2 0 6 -7 10 -15z
m263 -27 c-3 -7 -5 -2 -5 12 0 14 2 19 5 13 2 -7 2 -19 0 -25z m-616 -5 c13
-16 12 -17 -3 -4 -10 7 -18 15 -18 17 0 8 8 3 21 -13z m-5404 -15 c-3 -8 -6
-5 -6 6 -1 11 2 17 5 13 3 -3 4 -12 1 -19z m-260 -10 c-3 -8 -6 -5 -6 6 -1 11
2 17 5 13 3 -3 4 -12 1 -19z m1714 5 c13 -16 12 -17 -3 -4 -10 7 -18 15 -18
17 0 8 8 3 21 -13z m4593 -24 c3 -17 6 -46 5 -63 l-1 -31 -10 38 c-10 37 -21
46 -33 26 -4 -5 1 -20 12 -31 18 -20 18 -21 -2 -10 -11 6 -31 20 -43 32 -19
18 -21 24 -10 31 7 5 20 9 29 9 9 0 19 7 23 15 9 25 23 17 30 -16z m-799 1
c10 -11 16 -20 13 -20 -3 0 -13 9 -23 20 -10 11 -16 20 -13 20 3 0 13 -9 23
-20z m-5470 -20 c10 -11 15 -21 12 -21 -4 -1 -11 -2 -15 -3 -5 0 -17 -10 -28
-20 -18 -19 -19 -19 -22 -1 -4 18 16 65 28 65 4 0 15 -9 25 -20z m3526 3 c13
-16 12 -17 -3 -4 -10 7 -18 15 -18 17 0 8 8 3 21 -13z m2150 0 c13 -16 12 -17
-3 -4 -10 7 -18 15 -18 17 0 8 8 3 21 -13z m-5904 -25 c-3 -8 -6 -5 -6 6 -1
11 2 17 5 13 3 -3 4 -12 1 -19z m2908 2 c-3 -5 -12 -10 -18 -10 -7 0 -6 4 3
10 19 12 23 12 15 0z m-935 -25 c13 -14 21 -25 18 -25 -2 0 -15 11 -28 25 -13
14 -21 25 -18 25 2 0 15 -11 28 -25z m377 17 c10 -6 8 -17 -8 -48 -12 -21 -28
-52 -36 -67 -15 -28 -15 -49 3 -229 5 -49 3 -58 -10 -58 -9 0 -16 8 -16 17 0
9 -8 26 -17 37 -11 13 -12 16 -3 9 13 -10 15 1 12 87 -2 71 1 106 11 127 8 15
18 48 22 73 10 63 15 69 42 52z m2024 -2 c10 -6 19 -18 19 -28 -1 -16 -2 -16
-14 1 -16 21 -26 22 -26 1 0 -8 -4 -12 -10 -9 -13 8 -13 45 1 45 6 0 19 -5 30
-10z m1370 -7 c13 -16 12 -17 -3 -4 -10 7 -18 15 -18 17 0 8 8 3 21 -13z
m-3580 -20 c13 -16 12 -17 -3 -4 -10 7 -18 15 -18 17 0 8 8 3 21 -13z m-1535
-40 c4 -16 11 -31 17 -34 5 -4 -7 -24 -26 -45 -19 -22 -39 -36 -42 -32 -9 9
25 138 36 138 5 0 12 -12 15 -27z m226 4 c-12 -13 -22 -36 -22 -50 0 -21 -9
-33 -35 -48 -29 -18 -35 -27 -35 -55 0 -28 -6 -38 -32 -54 -18 -11 -37 -20
-41 -20 -5 0 17 37 49 83 66 94 123 167 131 167 4 0 -3 -10 -15 -23z m3828 19
c0 -2 -8 -10 -17 -17 -16 -13 -17 -12 -4 4 13 16 21 21 21 13z m1101 -13 c13
-16 12 -17 -3 -4 -10 7 -18 15 -18 17 0 8 8 3 21 -13z m-3115 -21 c-4 -11 -18
-28 -32 -37 -25 -16 -26 -16 -22 7 2 13 10 23 18 23 8 0 18 9 23 19 10 24 21
14 13 -12z m3611 -14 c-3 -8 -6 -5 -6 6 -1 11 2 17 5 13 3 -3 4 -12 1 -19z
m-1647 -8 c0 -13 -9 -22 -27 -26 -16 -4 -34 -11 -40 -17 -9 -6 -18 -5 -29 4
-14 11 -10 16 33 35 61 28 63 28 63 4z m1371 3 c13 -16 12 -17 -3 -4 -10 7
-18 15 -18 17 0 8 8 3 21 -13z m-3821 3 c0 -2 -8 -10 -17 -17 -16 -13 -17 -12
-4 4 13 16 21 21 21 13z m1865 -6 c3 -6 -1 -7 -9 -4 -18 7 -21 14 -7 14 6 0
13 -4 16 -10z m1780 -10 c10 -11 16 -20 13 -20 -3 0 -13 9 -23 20 -10 11 -16
20 -13 20 3 0 13 -9 23 -20z m862 -12 c-3 -7 -5 -2 -5 12 0 14 2 19 5 13 2 -7
2 -19 0 -25z m-6457 -28 c-7 -5 -11 -14 -8 -22 4 -9 -1 -14 -14 -15 -11 -1
-37 -11 -59 -21 l-38 -19 18 26 c23 31 59 64 86 79 16 9 21 8 23 -5 2 -9 -2
-19 -8 -23z m5011 23 c13 -16 12 -17 -3 -4 -10 7 -18 15 -18 17 0 8 8 3 21
-13z m867 -100 c-4 -35 -20 -31 -45 13 -19 33 -20 40 -8 47 8 4 15 20 16 35 0
22 3 19 20 -22 11 -27 19 -60 17 -73z m-4321 75 c-3 -8 -6 -5 -6 6 -1 11 2 17
5 13 3 -3 4 -12 1 -19z m2610 -100 c-5 -77 -3 -107 4 -102 8 4 7 0 0 -15 -26
-48 -33 -22 -30 108 3 105 7 127 18 123 11 -4 13 -26 8 -114z m-2180 50 c-2
-13 -4 -3 -4 22 0 25 2 35 4 23 2 -13 2 -33 0 -45z m2240 -5 c-2 -16 -4 -5 -4
22 0 28 2 40 4 28 2 -13 2 -35 0 -50z m-1735 30 c-5 -31 -27 -59 -56 -75 -14
-8 -17 -7 -11 4 17 27 66 98 69 98 2 0 1 -12 -2 -27z m3735 -65 c-2 -13 -4 -3
-4 22 0 25 2 35 4 23 2 -13 2 -33 0 -45z m-6449 -90 c39 47 128 122 94 80 -8
-10 -11 -22 -8 -27 4 -6 -11 -19 -34 -31 -22 -11 -40 -27 -40 -35 0 -8 -13
-21 -29 -29 -16 -9 -31 -22 -34 -31 -4 -8 -12 -15 -18 -15 -9 0 -10 25 -6 93
8 134 21 152 27 38 l5 -95 43 52z m339 75 c-3 -10 -5 -4 -5 12 0 17 2 24 5 18
2 -7 2 -21 0 -30z m3671 2 c-3 -3 -9 2 -12 12 -6 14 -5 15 5 6 7 -7 10 -15 7
-18z m1295 5 c3 -11 1 -18 -4 -14 -5 3 -9 12 -9 20 0 20 7 17 13 -6z m1404
-32 c-2 -13 -4 -5 -4 17 -1 22 1 32 4 23 2 -10 2 -28 0 -40z m-379 -135 c3
-93 1 -143 -5 -143 -11 0 -23 45 -23 83 0 11 -6 25 -14 31 -8 6 -17 26 -21 45
-6 28 -5 33 8 28 17 -6 27 29 27 97 1 35 2 38 12 22 6 -11 13 -84 16 -163z
m-1213 127 c14 -28 14 -30 -2 -30 -10 0 -28 3 -40 6 -19 5 -20 9 -11 30 15 32
34 30 53 -6z m1456 13 c13 -16 12 -17 -3 -4 -10 7 -18 15 -18 17 0 8 8 3 21
-13z m-6374 -25 c-3 -7 -5 -2 -5 12 0 14 2 19 5 13 2 -7 2 -19 0 -25z m2440
19 c-10 -25 -75 -123 -91 -136 -48 -40 -18 32 38 94 20 21 36 43 36 47 0 4 5
8 11 8 6 0 9 -6 6 -13z m1524 -4 c13 -16 12 -17 -3 -4 -10 7 -18 15 -18 17 0
8 8 3 21 -13z m1174 -13 c10 -11 16 -20 13 -20 -3 0 -13 9 -23 20 -10 11 -16
20 -13 20 3 0 13 -9 23 -20z m-4948 -48 c-7 -24 -18 -47 -24 -50 -6 -4 -14
-25 -18 -47 -15 -92 -17 -94 -32 -30 -15 62 -10 165 8 165 5 0 9 -18 9 -40 0
-28 4 -40 14 -40 15 0 19 10 31 68 4 19 11 30 16 25 4 -4 3 -27 -4 -51z m1123
-2 c0 -18 -62 -80 -81 -80 -11 0 -6 9 36 67 30 42 45 46 45 13z m960 26 c0 -2
-8 -10 -17 -17 -16 -13 -17 -12 -4 4 13 16 21 21 21 13z m4151 -13 c13 -16 12
-17 -3 -4 -10 7 -18 15 -18 17 0 8 8 3 21 -13z m-1919 -41 c-7 -2 -12 -25 -12
-53 0 -38 4 -49 16 -49 11 0 14 -6 8 -22 -4 -13 -17 -62 -29 -110 -11 -48 -24
-90 -28 -94 -12 -13 -7 168 7 248 13 73 36 120 45 95 2 -6 -1 -13 -7 -15z
m1755 -9 c-3 -10 -5 -4 -5 12 0 17 2 24 5 18 2 -7 2 -21 0 -30z m-6270 -5 c-3
-7 -5 -2 -5 12 0 14 2 19 5 13 2 -7 2 -19 0 -25z m1790 -225 c4 -65 2 -93 -6
-93 -11 0 -15 11 -31 107 -6 34 -17 84 -25 110 -19 63 -19 70 5 90 11 10 21
24 21 33 3 31 30 -158 36 -247z m-440 190 c-3 -10 -5 -4 -5 12 0 17 2 24 5 18
2 -7 2 -21 0 -30z m2588 17 c10 -11 16 -20 13 -20 -3 0 -13 9 -23 20 -10 11
-16 20 -13 20 3 0 13 -9 23 -20z m-2915 -15 c0 -2 -10 -9 -22 -15 -22 -11 -22
-10 -4 4 21 17 26 19 26 11z m1624 -86 c6 -77 23 -126 60 -173 11 -13 24 -17
45 -14 16 2 28 1 25 -4 -10 -15 -63 -8 -73 10 -9 14 -10 11 -11 -15 0 -32 -1
-33 -43 -33 l-44 0 0 43 c0 85 -14 159 -28 153 -10 -4 -7 12 10 51 14 30 25
57 25 59 0 2 6 4 14 4 9 0 15 -23 20 -81z m2183 44 c-3 -10 -5 -4 -5 12 0 17
2 24 5 18 2 -7 2 -21 0 -30z m-4850 -190 c-2 -38 -3 -7 -3 67 0 74 1 105 3 68
2 -38 2 -98 0 -135z m3705 180 c10 -9 18 -21 18 -27 0 -6 -5 -3 -11 7 -20 35
-29 15 -29 -68 0 -84 0 -85 25 -85 19 0 25 5 25 22 0 17 3 19 12 10 9 -9 8
-29 -3 -84 -8 -46 -15 -63 -17 -47 -2 16 -13 31 -28 37 -13 7 -24 19 -24 27 0
13 -7 15 -35 9 l-34 -6 18 48 c28 72 41 118 41 141 0 35 14 41 42 16z m2166
-28 c-3 -3 -9 2 -12 12 -6 14 -5 15 5 6 7 -7 10 -15 7 -18z m429 -167 c-2 -35
-3 -7 -3 62 0 69 1 97 3 63 2 -35 2 -91 0 -125z m-5327 158 c0 -2 -8 -10 -17
-17 -16 -13 -17 -12 -4 4 13 16 21 21 21 13z m2767 -73 c-3 -10 -5 -4 -5 12 0
17 2 24 5 18 2 -7 2 -21 0 -30z m-2370 -15 c-3 -7 -5 -2 -5 12 0 14 2 19 5 13
2 -7 2 -19 0 -25z m3480 0 c-3 -7 -5 -2 -5 12 0 14 2 19 5 13 2 -7 2 -19 0
-25z m-480 0 c-3 -8 -6 -5 -6 6 -1 11 2 17 5 13 3 -3 4 -12 1 -19z m-1790 -70
c-2 -18 -4 -6 -4 27 0 33 2 48 4 33 2 -15 2 -42 0 -60z m-1442 3 c-3 -12 -13
-21 -21 -21 -8 0 -14 -7 -14 -15 0 -8 -7 -15 -15 -15 -17 0 -12 15 23 68 18
27 37 15 27 -17z m865 25 c0 -2 -8 -10 -17 -17 -16 -13 -17 -12 -4 4 13 16 21
21 21 13z m1413 -13 c-7 -2 -13 -20 -13 -39 0 -19 -4 -34 -10 -34 -5 0 -10 9
-10 19 0 16 -11 22 -61 32 -77 15 -59 29 36 28 39 0 64 -3 58 -6z m1444 -15
c-3 -8 -6 -5 -6 6 -1 11 2 17 5 13 3 -3 4 -12 1 -19z m-1649 -5 c46 -5 52 -8
52 -29 0 -19 -5 -24 -26 -24 -21 0 -25 4 -21 19 4 18 -1 20 -44 19 -41 0 -49
-3 -49 -19 0 -16 -7 -19 -40 -19 -29 0 -40 4 -40 15 0 9 -9 15 -25 15 -14 0
-25 -4 -25 -10 0 -5 -4 -10 -10 -10 -5 0 -10 7 -10 15 0 8 5 15 10 15 6 0 10
5 10 11 0 7 -24 9 -70 7 -39 -2 -70 1 -70 6 0 9 251 1 358 -11z m-368 3 c0 -2
-7 -7 -16 -10 -8 -3 -12 -2 -9 4 6 10 25 14 25 6z m710 -26 c0 -6 9 -6 24 0
21 7 23 6 19 -11 -4 -15 -14 -19 -51 -19 -44 0 -45 0 -27 20 19 21 35 26 35
10z m-951 -43 c12 -15 12 -17 -3 -11 -9 3 -16 13 -16 22 0 8 1 13 3 11 1 -2 9
-12 16 -22z m1528 -29 c-3 -8 -6 -5 -6 6 -1 11 2 17 5 13 3 -3 4 -12 1 -19z
m1840 -10 c-3 -8 -6 -5 -6 6 -1 11 2 17 5 13 3 -3 4 -12 1 -19z m-2264 -3 c-3
-9 -8 -14 -10 -11 -3 3 -2 9 2 15 9 16 15 13 8 -4z m-1510 -30 c-3 -9 -8 -14
-10 -11 -3 3 -2 9 2 15 9 16 15 13 8 -4z m4094 -7 c-3 -8 -6 -5 -6 6 -1 11 2
17 5 13 3 -3 4 -12 1 -19z m-6280 -20 c-3 -7 -5 -2 -5 12 0 14 2 19 5 13 2 -7
2 -19 0 -25z m3657 -3 c-14 -19 -30 -35 -34 -35 -5 0 6 16 23 35 17 19 32 35
34 35 2 0 -8 -16 -23 -35z m-3397 -17 c-3 -8 -6 -5 -6 6 -1 11 2 17 5 13 3 -3
4 -12 1 -19z m1276 -40 c-34 -35 -40 -46 -32 -61 6 -10 9 -20 7 -21 -33 -27
-87 -56 -103 -56 -14 0 4 23 70 90 49 50 92 90 94 90 3 0 -14 -19 -36 -42z
m1320 25 c-7 -2 -21 -2 -30 0 -10 3 -4 5 12 5 17 0 24 -2 18 -5z m1147 -3 c0
-5 -2 -10 -4 -10 -3 0 -8 5 -11 10 -3 6 -1 10 4 10 6 0 11 -4 11 -10z m680
-15 c13 -14 21 -25 18 -25 -2 0 -15 11 -28 25 -13 14 -21 25 -18 25 2 0 15
-11 28 -25z m-1917 8 c-7 -2 -19 -2 -25 0 -7 3 -2 5 12 5 14 0 19 -2 13 -5z
m-422 -20 c13 -16 12 -17 -3 -4 -10 7 -18 15 -18 17 0 8 8 3 21 -13z m1609 3
c0 -2 -8 -10 -17 -17 -16 -13 -17 -12 -4 4 13 16 21 21 21 13z m24 -75 c-26
-40 -28 -41 -86 -41 -42 0 -58 4 -56 12 2 6 10 14 18 16 8 3 10 0 5 -8 -11
-18 51 -5 71 15 9 8 20 15 25 15 5 0 17 16 27 37 14 30 18 33 20 15 2 -11 -9
-39 -24 -61z m-3747 37 c-3 -8 -6 -5 -6 6 -1 11 2 17 5 13 3 -3 4 -12 1 -19z
m2154 -5 c13 -16 12 -17 -3 -4 -10 7 -18 15 -18 17 0 8 8 3 21 -13z m911 -16
c-12 -13 -19 -31 -17 -42 5 -22 -39 -62 -49 -46 -6 9 69 111 81 111 4 0 -3
-10 -15 -23z m-961 -4 c13 -16 12 -17 -3 -4 -17 13 -22 21 -14 21 2 0 10 -8
17 -17z m1559 13 c0 -2 -8 -10 -17 -17 -16 -13 -17 -12 -4 4 13 16 21 21 21
13z m-1457 -63 c-7 -2 -21 -2 -30 0 -10 3 -4 5 12 5 17 0 24 -2 18 -5z m2204
-35 c-3 -7 -5 -2 -5 12 0 14 2 19 5 13 2 -7 2 -19 0 -25z m1380 0 c-3 -8 -6
-5 -6 6 -1 11 2 17 5 13 3 -3 4 -12 1 -19z m-4415 -71 c-5 -7 -15 -33 -22 -59
-11 -44 -31 -66 -30 -35 2 34 28 121 38 125 7 2 13 16 14 30 1 18 3 14 5 -11
3 -21 0 -44 -5 -50z m-1163 51 c0 -20 -1 -21 -8 -5 -6 16 -16 9 -69 -47 -34
-37 -62 -64 -62 -61 0 10 122 135 132 135 4 0 8 -10 7 -22z m1738 -20 c-3 -7
-5 -2 -5 12 0 14 2 19 5 13 2 -7 2 -19 0 -25z m1940 10 c-3 -8 -6 -5 -6 6 -1
11 2 17 5 13 3 -3 4 -12 1 -19z m-3920 -30 c-3 -8 -6 -5 -6 6 -1 11 2 17 5 13
3 -3 4 -12 1 -19z m1103 -23 c-24 -25 -46 -45 -49 -45 -3 0 15 20 39 45 24 25
46 45 49 45 3 0 -15 -20 -39 -45z m-863 -2 c-3 -10 -5 -4 -5 12 0 17 2 24 5
18 2 -7 2 -21 0 -30z m-410 -20 c-3 -10 -5 -2 -5 17 0 19 2 27 5 18 2 -10 2
-26 0 -35z m3170 25 c-3 -8 -6 -5 -6 6 -1 11 2 17 5 13 3 -3 4 -12 1 -19z
m3010 0 c-3 -8 -6 -5 -6 6 -1 11 2 17 5 13 3 -3 4 -12 1 -19z m-180 -30 c-3
-7 -5 -2 -5 12 0 14 2 19 5 13 2 -7 2 -19 0 -25z m-226 5 c13 -16 12 -17 -3
-4 -10 7 -18 15 -18 17 0 8 8 3 21 -13z m-5614 -55 c-2 -13 -4 -5 -4 17 -1 22
1 32 4 23 2 -10 2 -28 0 -40z m2114 35 c13 -16 12 -17 -3 -4 -10 7 -18 15 -18
17 0 8 8 3 21 -13z m-1424 -25 c-3 -7 -5 -2 -5 12 0 14 2 19 5 13 2 -7 2 -19
0 -25z m3108 12 c-3 -5 -12 -10 -18 -10 -7 0 -6 4 3 10 19 12 23 12 15 0z
m1802 -27 c-3 -10 -5 -4 -5 12 0 17 2 24 5 18 2 -7 2 -21 0 -30z m-787 -38
c35 -36 62 -65 59 -65 -2 0 -34 29 -69 65 -35 36 -62 65 -59 65 2 0 34 -29 69
-65z m851 38 c13 -16 12 -17 -3 -4 -10 7 -18 15 -18 17 0 8 8 3 21 -13z m356
-30 c-3 -10 -5 -4 -5 12 0 17 2 24 5 18 2 -7 2 -21 0 -30z m-5620 5 c-3 -8 -6
-5 -6 6 -1 11 2 17 5 13 3 -3 4 -12 1 -19z m3350 16 c-3 -3 -12 -4 -19 -1 -8
3 -5 6 6 6 11 1 17 -2 13 -5z m-1514 -11 c-7 -2 -21 -2 -30 0 -10 3 -4 5 12 5
17 0 24 -2 18 -5z m2894 -25 c-3 -7 -5 -2 -5 12 0 14 2 19 5 13 2 -7 2 -19 0
-25z m-5300 -10 c-3 -7 -5 -2 -5 12 0 14 2 19 5 13 2 -7 2 -19 0 -25z m5560
-5 c-3 -10 -5 -4 -5 12 0 17 2 24 5 18 2 -7 2 -21 0 -30z m-4467 -43 c-29 -33
-57 -63 -64 -67 -6 -4 15 23 48 60 32 37 61 67 63 67 3 0 -18 -27 -47 -60z
m-723 13 c-3 -10 -5 -4 -5 12 0 17 2 24 5 18 2 -7 2 -21 0 -30z m5420 -15 c-3
-8 -6 -5 -6 6 -1 11 2 17 5 13 3 -3 4 -12 1 -19z m410 -10 c-3 -7 -5 -2 -5 12
0 14 2 19 5 13 2 -7 2 -19 0 -25z m-630 0 c-3 -8 -6 -5 -6 6 -1 11 2 17 5 13
3 -3 4 -12 1 -19z m-260 -40 c-2 -13 -4 -5 -4 17 -1 22 1 32 4 23 2 -10 2 -28
0 -40z m-5320 10 c-3 -7 -5 -2 -5 12 0 14 2 19 5 13 2 -7 2 -19 0 -25z m2469
17 c18 -13 15 -14 -28 -15 -36 0 -48 4 -48 15 0 20 50 20 76 0z m564 12 c0 -2
-19 -21 -42 -42 l-43 -40 40 43 c36 39 45 47 45 39z m860 -16 c0 -5 -12 -23
-26 -40 -24 -29 -29 -31 -92 -30 l-67 2 57 6 c41 4 62 12 72 26 8 11 10 22 5
23 -5 2 -7 8 -3 13 7 12 54 12 54 0z m-1966 -28 c-4 -16 -11 -37 -15 -48 -6
-16 -8 -17 -8 -3 -1 16 -4 16 -37 2 -65 -27 -71 -12 -13 33 64 51 82 54 73 16z
m377 0 c13 -16 12 -17 -3 -4 -10 7 -18 15 -18 17 0 8 8 3 21 -13z m236 11 c-3
-3 -12 -4 -19 -1 -8 3 -5 6 6 6 11 1 17 -2 13 -5z m1230 0 c-3 -3 -12 -4 -19
-1 -8 3 -5 6 6 6 11 1 17 -2 13 -5z m213 3 c0 -2 -17 -19 -37 -38 l-38 -34 34
38 c33 34 41 42 41 34z m-1549 -24 c13 -16 12 -17 -3 -4 -10 7 -18 15 -18 17
0 8 8 3 21 -13z m2700 -10 c13 -16 12 -17 -3 -4 -10 7 -18 15 -18 17 0 8 8 3
21 -13z m-2568 -20 c-18 -2 -48 -2 -65 0 -18 2 -4 4 32 4 36 0 50 -2 33 -4z
m-2576 -50 c-3 -10 -5 -4 -5 12 0 17 2 24 5 18 2 -7 2 -21 0 -30z m6230 -175
c-1 -40 -3 -8 -3 72 0 80 2 112 3 73 2 -40 2 -106 0 -145z m-2349 178 c-7 -8
-15 -12 -17 -11 -5 6 10 25 20 25 5 0 4 -6 -3 -14z m499 -8 c-3 -8 -6 -5 -6 6
-1 11 2 17 5 13 3 -3 4 -12 1 -19z m1240 -15 c-3 -10 -5 -4 -5 12 0 17 2 24 5
18 2 -7 2 -21 0 -30z m-260 -35 c-2 -13 -4 -3 -4 22 0 25 2 35 4 23 2 -13 2
-33 0 -45z m-5158 -160 c0 -242 -14 -253 -25 -23 -5 96 -10 142 -16 131 -5 -9
-16 -16 -24 -16 -18 0 -10 39 12 56 7 6 18 23 23 37 25 64 31 24 30 -185z
m3368 166 c-3 -3 -12 -4 -19 -1 -8 3 -5 6 6 6 11 1 17 -2 13 -5z m216 -1 c-7
-2 -21 -2 -30 0 -10 3 -4 5 12 5 17 0 24 -2 18 -5z m-1170 -20 c-7 -2 -21 -2
-30 0 -10 3 -4 5 12 5 17 0 24 -2 18 -5z m80 0 c-7 -2 -21 -2 -30 0 -10 3 -4
5 12 5 17 0 24 -2 18 -5z m-2176 -25 c-3 -8 -6 -5 -6 6 -1 11 2 17 5 13 3 -3
4 -12 1 -19z m-530 -50 c-2 -13 -4 -3 -4 22 0 25 2 35 4 23 2 -13 2 -33 0 -45z
m1880 30 c-3 -7 -5 -2 -5 12 0 14 2 19 5 13 2 -7 2 -19 0 -25z m-237 -23 c-24
-25 -46 -45 -49 -45 -3 0 15 20 39 45 24 25 46 45 49 45 3 0 -15 -20 -39 -45z
m1417 29 c-3 -3 -12 -4 -19 -1 -8 3 -5 6 6 6 11 1 17 -2 13 -5z m200 0 c-3 -3
-12 -4 -19 -1 -8 3 -5 6 6 6 11 1 17 -2 13 -5z m2393 -79 c4 -5 11 -107 15
-225 3 -118 9 -217 11 -220 3 -2 9 2 14 10 21 32 10 -21 -12 -63 l-23 -42 -6
130 c-8 163 -17 502 -11 455 2 -19 7 -39 12 -45z m-5137 45 c-3 -12 -8 -19
-11 -16 -5 6 5 36 12 36 2 0 2 -9 -1 -20z m5304 -42 c-3 -7 -5 -2 -5 12 0 14
2 19 5 13 2 -7 2 -19 0 -25z m-3180 -44 c-3 -3 -12 -4 -19 -1 -8 3 -5 6 6 6
11 1 17 -2 13 -5z m-520 -36 c-3 -8 -6 -5 -6 6 -1 11 2 17 5 13 3 -3 4 -12 1
-19z m3690 0 c-3 -8 -6 -5 -6 6 -1 11 2 17 5 13 3 -3 4 -12 1 -19z m-1022 -28
c21 -22 37 -40 34 -40 -3 0 -23 18 -44 40 -21 22 -37 40 -34 40 3 0 23 -18 44
-40z m-3280 21 c-3 -5 0 -13 5 -16 14 -9 -17 -45 -38 -45 -9 0 -25 -8 -36 -17
l-21 -18 20 25 c43 55 89 101 70 71z m4509 -23 c23 -33 20 -55 -9 -60 -24 -5
-25 -3 -25 38 0 49 11 55 34 22z m-2097 -10 c-3 -8 -6 -5 -6 6 -1 11 2 17 5
13 3 -3 4 -12 1 -19z m-3430 -10 c-3 -8 -6 -5 -6 6 -1 11 2 17 5 13 3 -3 4
-12 1 -19z m255 -195 c-5 -193 -4 -207 12 -194 15 12 15 11 2 -20 -8 -19 -21
-35 -30 -37 -14 -3 -16 17 -16 171 0 162 13 287 30 287 4 0 5 -93 2 -207z
m1385 185 c-3 -8 -6 -5 -6 6 -1 11 2 17 5 13 3 -3 4 -12 1 -19z m2834 5 c13
-16 12 -17 -3 -4 -10 7 -18 15 -18 17 0 8 8 3 21 -13z m836 -5 c-3 -8 -6 -5
-6 6 -1 11 2 17 5 13 3 -3 4 -12 1 -19z m-5400 -35 c-3 -10 -5 -2 -5 17 0 19
2 27 5 18 2 -10 2 -26 0 -35z m5830 -15 c-3 -7 -5 -2 -5 12 0 14 2 19 5 13 2
-7 2 -19 0 -25z m-5750 -10 c-3 -8 -6 -5 -6 6 -1 11 2 17 5 13 3 -3 4 -12 1
-19z m4000 0 c-3 -8 -6 -5 -6 6 -1 11 2 17 5 13 3 -3 4 -12 1 -19z m-242 -29
c-4 -11 -2 -19 5 -19 6 0 9 -4 5 -10 -3 -5 -13 -6 -21 -3 -10 4 -17 -2 -21
-17 -4 -16 -8 -18 -14 -8 -8 13 -6 28 13 77 7 19 11 21 23 11 9 -8 13 -21 10
-31z m-2098 -1 c-3 -7 -5 -2 -5 12 0 14 2 19 5 13 2 -7 2 -19 0 -25z m-90 -10
c-3 -7 -5 -2 -5 12 0 14 2 19 5 13 2 -7 2 -19 0 -25z m2854 15 c13 -16 12 -17
-3 -4 -10 7 -18 15 -18 17 0 8 8 3 21 -13z m-3594 -25 c-3 -7 -5 -2 -5 12 0
14 2 19 5 13 2 -7 2 -19 0 -25z m4670 10 c-3 -8 -6 -5 -6 6 -1 11 2 17 5 13 3
-3 4 -12 1 -19z m-5570 -10 c-3 -8 -6 -5 -6 6 -1 11 2 17 5 13 3 -3 4 -12 1
-19z m1390 -110 c-2 -24 -4 -5 -4 42 0 47 2 66 4 43 2 -24 2 -62 0 -85z
m-1330 90 c-3 -8 -6 -5 -6 6 -1 11 2 17 5 13 3 -3 4 -12 1 -19z m-250 -25 c-3
-10 -5 -4 -5 12 0 17 2 24 5 18 2 -7 2 -21 0 -30z m6000 5 c-3 -7 -5 -2 -5 12
0 14 2 19 5 13 2 -7 2 -19 0 -25z m-5793 -14 c3 -8 2 -12 -4 -9 -6 3 -10 10
-10 16 0 14 7 11 14 -7z m873 -24 c-4 -35 -3 -39 9 -29 8 6 14 19 15 28 0 10
4 7 10 -8 11 -28 -4 -51 -32 -51 -16 0 -19 8 -19 43 0 40 5 57 18 57 3 0 2
-18 -1 -40z m-370 -22 c-2 -13 -4 -5 -4 17 -1 22 1 32 4 23 2 -10 2 -28 0 -40z
m5040 30 c-3 -8 -6 -5 -6 6 -1 11 2 17 5 13 3 -3 4 -12 1 -19z m-3820 -35 c-3
-10 -5 -4 -5 12 0 17 2 24 5 18 2 -7 2 -21 0 -30z m-1704 7 c3 -11 1 -18 -4
-14 -5 3 -9 12 -9 20 0 20 7 17 13 -6z m5294 -2 c-3 -8 -6 -5 -6 6 -1 11 2 17
5 13 3 -3 4 -12 1 -19z m-1250 -60 c-2 -13 -4 -5 -4 17 -1 22 1 32 4 23 2 -10
2 -28 0 -40z m-2480 0 c-3 -7 -5 -2 -5 12 0 14 2 19 5 13 2 -7 2 -19 0 -25z
m2270 10 c-3 -8 -6 -5 -6 6 -1 11 2 17 5 13 3 -3 4 -12 1 -19z m1930 -70 c-2
-18 -4 -6 -4 27 0 33 2 48 4 33 2 -15 2 -42 0 -60z m-2060 15 c-3 -10 -5 -4
-5 12 0 17 2 24 5 18 2 -7 2 -21 0 -30z m-3250 -5 c-3 -7 -5 -2 -5 12 0 14 2
19 5 13 2 -7 2 -19 0 -25z m2930 10 c-3 -8 -6 -5 -6 6 -1 11 2 17 5 13 3 -3 4
-12 1 -19z m460 -10 c-3 -8 -6 -5 -6 6 -1 11 2 17 5 13 3 -3 4 -12 1 -19z
m-1707 -2 c0 -2 -8 -10 -17 -17 -16 -13 -17 -12 -4 4 13 16 21 21 21 13z m27
-18 c-3 -8 -6 -5 -6 6 -1 11 2 17 5 13 3 -3 4 -12 1 -19z m1130 -10 c-3 -8 -6
-5 -6 6 -1 11 2 17 5 13 3 -3 4 -12 1 -19z m-1740 -40 c-2 -13 -4 -5 -4 17 -1
22 1 32 4 23 2 -10 2 -28 0 -40z m500 30 c-3 -8 -6 -5 -6 6 -1 11 2 17 5 13 3
-3 4 -12 1 -19z m-1245 -89 c9 -46 15 -90 13 -96 -5 -16 -45 -17 -45 -2 0 6
-9 8 -21 4 -21 -7 -22 -5 -15 46 11 83 27 140 40 136 6 -2 18 -41 28 -88z
m3045 39 c-3 -7 -5 -2 -5 12 0 14 2 19 5 13 2 -7 2 -19 0 -25z m180 10 c-3 -8
-6 -5 -6 6 -1 11 2 17 5 13 3 -3 4 -12 1 -19z m890 -10 c-3 -7 -5 -2 -5 12 0
14 2 19 5 13 2 -7 2 -19 0 -25z m-2731 2 c8 0 14 -5 14 -11 0 -5 5 -7 11 -3
14 8 3 -32 -19 -66 -15 -23 -16 -23 -23 -5 -4 11 -8 40 -8 65 1 25 3 39 6 33
2 -7 11 -13 19 -13z m-101 0 c-3 -5 -12 -10 -18 -10 -7 0 -6 4 3 10 19 12 23
12 15 0z m415 -26 c12 -31 13 -117 2 -110 -5 3 -15 23 -22 46 -11 32 -17 39
-32 34 -21 -6 -22 -3 -6 31 15 33 46 32 58 -1z m456 -6 l19 -23 -22 19 c-23
19 -23 19 -24 -5 0 -13 -3 -18 -6 -11 -5 12 2 42 10 42 2 0 12 -10 23 -22z
m-1409 -185 c-2 -32 -3 -6 -3 57 0 63 1 89 3 58 2 -32 2 -84 0 -115z m-159 18
c20 -81 20 -117 1 -105 -5 3 -9 16 -9 29 0 13 -5 25 -12 27 -8 3 -13 37 -15
99 -3 101 -1 98 35 -50z m329 42 c-2 -16 -4 -5 -4 22 0 28 2 40 4 28 2 -13 2
-35 0 -50z m690 35 c-3 -7 -5 -2 -5 12 0 14 2 19 5 13 2 -7 2 -19 0 -25z m490
10 c-3 -8 -6 -5 -6 6 -1 11 2 17 5 13 3 -3 4 -12 1 -19z m960 -55 c-2 -16 -4
-3 -4 27 0 30 2 43 4 28 2 -16 2 -40 0 -55z m-3790 -10 c-2 -16 -4 -3 -4 27 0
30 2 43 4 28 2 -16 2 -40 0 -55z m3620 -180 c-1 -49 -3 -9 -3 87 0 96 2 136 3
88 2 -49 2 -127 0 -175z m908 215 c22 -24 33 -37 26 -30 -8 6 -25 12 -38 12
-21 0 -22 -3 -16 -27 13 -49 10 -360 -4 -374 -11 -10 -13 13 -13 117 0 72 -3
179 -7 237 -4 66 -2 107 3 107 6 0 28 -19 49 -42z m-1535 28 c0 -2 -8 -10 -17
-17 -16 -13 -17 -12 -4 4 13 16 21 21 21 13z m2360 -32 c0 -20 -8 -46 -18 -57
-33 -40 -40 -28 -19 33 24 68 37 77 37 24z m-4973 -6 c-3 -7 -5 -2 -5 12 0 14
2 19 5 13 2 -7 2 -19 0 -25z m563 8 c0 -2 -8 -10 -17 -17 -16 -13 -17 -12 -4
4 13 16 21 21 21 13z m1517 -18 c-3 -8 -6 -5 -6 6 -1 11 2 17 5 13 3 -3 4 -12
1 -19z m360 0 c-3 -8 -6 -5 -6 6 -1 11 2 17 5 13 3 -3 4 -12 1 -19z m-896 -5
c13 -16 12 -17 -3 -4 -10 7 -18 15 -18 17 0 8 8 3 21 -13z m-1274 -50 c-3 -10
-5 -2 -5 17 0 19 2 27 5 18 2 -10 2 -26 0 -35z m310 15 c-3 -7 -5 -2 -5 12 0
14 2 19 5 13 2 -7 2 -19 0 -25z m-190 -25 c-3 -10 -5 -2 -5 17 0 19 2 27 5 18
2 -10 2 -26 0 -35z m1040 -20 c-2 -16 -4 -5 -4 22 0 28 2 40 4 28 2 -13 2 -35
0 -50z m971 4 c-4 -30 -35 -34 -43 -5 -19 65 -20 61 15 43 23 -12 30 -22 28
-38z m-2380 12 c-3 -8 -7 -3 -11 10 -4 17 -3 21 5 13 5 -5 8 -16 6 -23z m2882
17 c0 -2 -8 -10 -17 -17 -16 -13 -17 -12 -4 4 13 16 21 21 21 13z m-2333 -68
c-3 -7 -5 -2 -5 12 0 14 2 19 5 13 2 -7 2 -19 0 -25z m710 10 c-3 -8 -6 -5 -6
6 -1 11 2 17 5 13 3 -3 4 -12 1 -19z m3101 -18 c-7 -10 -14 -18 -15 -16 -6 6
9 36 18 36 5 0 4 -9 -3 -20z m-2941 -32 c-3 -8 -6 -5 -6 6 -1 11 2 17 5 13 3
-3 4 -12 1 -19z m-1810 -25 c-3 -10 -5 -4 -5 12 0 17 2 24 5 18 2 -7 2 -21 0
-30z m3220 15 c-3 -8 -6 -5 -6 6 -1 11 2 17 5 13 3 -3 4 -12 1 -19z m-2290
-20 c-3 -8 -6 -5 -6 6 -1 11 2 17 5 13 3 -3 4 -12 1 -19z m550 -90 c-2 -18 -4
-6 -4 27 0 33 2 48 4 33 2 -15 2 -42 0 -60z m1970 50 c-3 -7 -5 -2 -5 12 0 14
2 19 5 13 2 -7 2 -19 0 -25z m-550 -4 c-3 -3 -12 -4 -19 -1 -8 3 -5 6 6 6 11
1 17 -2 13 -5z m-750 -36 c-3 -8 -6 -5 -6 6 -1 11 2 17 5 13 3 -3 4 -12 1 -19z
m3053 -3 c0 -16 -13 -39 -35 -61 -19 -19 -35 -32 -35 -30 0 13 55 116 62 116
4 0 8 -11 8 -25z m-5193 -7 c-3 -8 -6 -5 -6 6 -1 11 2 17 5 13 3 -3 4 -12 1
-19z m3190 -10 c-3 -8 -6 -5 -6 6 -1 11 2 17 5 13 3 -3 4 -12 1 -19z m240 -10
c-3 -8 -6 -5 -6 6 -1 11 2 17 5 13 3 -3 4 -12 1 -19z m-664 5 c9 -9 -22 -43
-40 -43 -7 0 -13 -6 -13 -14 0 -12 -28 -25 -53 -26 -14 0 19 40 54 66 35 26
42 28 52 17z m2136 -25 c0 -21 -1 -21 -8 -4 -7 17 -10 15 -30 -17 -12 -21 -29
-37 -37 -37 -8 0 -14 -4 -14 -9 0 -6 -12 -16 -27 -23 -15 -7 -29 -22 -32 -33
-5 -27 -46 -79 -75 -94 -13 -7 -29 -23 -34 -35 -6 -11 -11 -15 -11 -9 -2 24
37 74 120 159 123 127 150 145 148 102z m-2462 -65 c-3 -10 -5 -2 -5 17 0 19
2 27 5 18 2 -10 2 -26 0 -35z m-2430 15 c-3 -8 -6 -5 -6 6 -1 11 2 17 5 13 3
-3 4 -12 1 -19z m610 -45 c-2 -16 -4 -5 -4 22 0 28 2 40 4 28 2 -13 2 -35 0
-50z m280 20 c-3 -10 -5 -4 -5 12 0 17 2 24 5 18 2 -7 2 -21 0 -30z m580 -10
c-3 -10 -5 -4 -5 12 0 17 2 24 5 18 2 -7 2 -21 0 -30z m418 17 c10 -11 16 -20
13 -20 -3 0 -13 9 -23 20 -10 11 -16 20 -13 20 3 0 13 -9 23 -20z m2132 -207
c-1 -43 -3 -10 -3 72 0 83 2 118 3 78 2 -40 2 -107 0 -150z m-1060 185 c-3 -8
-6 -5 -6 6 -1 11 2 17 5 13 3 -3 4 -12 1 -19z m-910 -20 c-3 -8 -6 -5 -6 6 -1
11 2 17 5 13 3 -3 4 -12 1 -19z m2830 0 c-3 -8 -6 -5 -6 6 -1 11 2 17 5 13 3
-3 4 -12 1 -19z m-3980 -30 c-3 -8 -6 -5 -6 6 -1 11 2 17 5 13 3 -3 4 -12 1
-19z m1540 0 c-3 -8 -6 -5 -6 6 -1 11 2 17 5 13 3 -3 4 -12 1 -19z m-332 -38
c10 -11 16 -20 13 -20 -3 0 -13 9 -23 20 -10 11 -16 20 -13 20 3 0 13 -9 23
-20z m852 -2 c-3 -8 -6 -5 -6 6 -1 11 2 17 5 13 3 -3 4 -12 1 -19z m1910 0
c-3 -8 -6 -5 -6 6 -1 11 2 17 5 13 3 -3 4 -12 1 -19z m-1827 -43 c0 -29 -24
-66 -47 -71 -13 -4 -26 -4 -29 -1 -9 9 19 45 38 50 10 3 18 12 18 21 0 9 5 16
10 16 6 0 10 -7 10 -15z m-1059 -12 c13 -16 12 -17 -3 -4 -10 7 -18 15 -18 17
0 8 8 3 21 -13z m109 -120 l75 -78 -77 75 c-43 41 -78 76 -78 77 0 8 11 -3 80
-74z m461 30 c13 -16 12 -17 -3 -4 -10 7 -18 15 -18 17 0 8 8 3 21 -13z m383
8 c3 -5 -2 -15 -12 -22 -15 -12 -16 -12 -5 2 7 9 10 19 6 22 -3 4 -4 7 0 7 3
0 8 -4 11 -9z m-317 -43 c-3 -7 -5 -2 -5 12 0 14 2 19 5 13 2 -7 2 -19 0 -25z
m1733 19 c0 -2 -17 -19 -37 -38 l-38 -34 34 38 c33 34 41 42 41 34z m-3556
-62 c20 -31 13 -49 -14 -35 -14 8 -40 57 -40 77 0 11 39 -20 54 -42z m1121 25
c10 -11 16 -20 13 -20 -3 0 -13 9 -23 20 -10 11 -16 20 -13 20 3 0 13 -9 23
-20z m1315 7 c0 -2 -10 -12 -22 -23 l-23 -19 19 23 c18 21 26 27 26 19z m558
-11 c-7 -8 -15 -12 -17 -11 -5 6 10 25 20 25 5 0 4 -6 -3 -14z m1121 -52 c-7
-13 -18 -24 -26 -24 -10 0 -8 11 9 43 17 32 23 38 26 23 2 -10 -2 -29 -9 -42z
m-1534 -33 c-8 -17 -20 -31 -25 -31 -20 0 -18 19 8 55 31 43 43 26 17 -24z
m-2314 12 c13 -16 12 -17 -3 -4 -10 7 -18 15 -18 17 0 8 8 3 21 -13z m944 -23
c21 -22 37 -40 34 -40 -3 0 -23 18 -44 40 -21 22 -37 40 -34 40 3 0 23 -18 44
-40z m1982 -47 c-3 -10 -5 -2 -5 17 0 19 2 27 5 18 2 -10 2 -26 0 -35z m-887
23 c0 -2 -8 -10 -17 -17 -16 -13 -17 -12 -4 4 13 16 21 21 21 13z m203 -18
c-11 -13 -18 -29 -16 -36 6 -17 -22 -48 -60 -67 -28 -14 -29 -14 -15 2 8 10
33 42 57 71 24 28 45 52 49 52 3 0 -4 -10 -15 -22z m1499 -17 c2 -23 -1 -37
-6 -34 -5 4 -7 -1 -3 -10 4 -11 -1 -21 -14 -28 -20 -10 -21 -9 -15 20 3 17 9
45 12 61 8 42 21 37 26 -9z m-3652 10 c0 -5 9 -12 19 -16 20 -6 38 -41 27 -53
-7 -6 -76 57 -76 70 0 4 7 8 15 8 8 0 15 -4 15 -9z m-393 -48 c-3 -10 -5 -2
-5 17 0 19 2 27 5 18 2 -10 2 -26 0 -35z m743 22 c13 -14 21 -25 18 -25 -2 0
-15 11 -28 25 -13 14 -21 25 -18 25 2 0 15 -11 28 -25z m2977 10 c0 -8 -4 -15
-9 -15 -5 0 -6 -5 -3 -10 6 -10 -20 -39 -70 -80 -21 -17 26 60 59 98 23 26 23
26 23 7z m-3030 -17 c-3 -8 -6 -5 -6 6 -1 11 2 17 5 13 3 -3 4 -12 1 -19z
m643 -13 c13 -14 21 -25 18 -25 -2 0 -15 11 -28 25 -13 14 -21 25 -18 25 2 0
15 -11 28 -25z m261 -32 c13 -16 12 -17 -3 -4 -10 7 -18 15 -18 17 0 8 8 3 21
-13z m-1420 -20 c13 -16 12 -17 -3 -4 -17 13 -22 21 -14 21 2 0 10 -8 17 -17z
m526 -20 c-3 -10 -5 -4 -5 12 0 17 2 24 5 18 2 -7 2 -21 0 -30z m694 20 c13
-16 12 -17 -3 -4 -10 7 -18 15 -18 17 0 8 8 3 21 -13z m819 4 c0 -2 -12 -14
-27 -28 l-28 -24 24 28 c23 25 31 32 31 24z m-1385 -27 c10 -11 16 -20 13 -20
-3 0 -13 9 -23 20 -10 11 -16 20 -13 20 3 0 13 -9 23 -20z m-818 -12 c-3 -8
-6 -5 -6 6 -1 11 2 17 5 13 3 -3 4 -12 1 -19z m2414 -30 c-6 -17 -11 -41 -11
-53 0 -12 -9 -33 -21 -46 l-21 -24 6 25 c2 14 7 45 11 70 3 24 13 53 23 63 21
23 27 7 13 -35z m796 -15 c-2 -16 -4 -5 -4 22 0 28 2 40 4 28 2 -13 2 -35 0
-50z m-2687 12 c19 -19 32 -35 29 -35 -3 0 -20 16 -39 35 -19 19 -32 35 -29
35 3 0 20 -16 39 -35z m-309 8 c13 -16 12 -17 -3 -4 -17 13 -22 21 -14 21 2 0
10 -8 17 -17z m1230 0 c13 -16 12 -17 -3 -4 -17 13 -22 21 -14 21 2 0 10 -8
17 -17z m693 -14 c-10 -12 -37 -35 -59 -51 -28 -21 -23 -15 15 20 58 54 76 67
44 31z m-2273 -6 c13 -16 12 -17 -3 -4 -17 13 -22 21 -14 21 2 0 10 -8 17 -17z
m1047 -9 c24 -7 27 -20 12 -44 -7 -12 -13 -11 -34 10 -40 36 -32 48 22 34z
m-657 -21 c13 -16 12 -17 -3 -4 -17 13 -22 21 -14 21 2 0 10 -8 17 -17z m475
-85 c4 -46 3 -82 -4 -93 -9 -17 -12 -16 -35 9 -24 25 -25 30 -12 50 7 11 17
47 21 80 9 74 20 56 30 -46z m2547 78 c-10 -13 -20 -22 -22 -20 -4 4 29 44 36
44 2 0 -4 -11 -14 -24z m-253 -71 c0 -30 -4 -55 -10 -55 -5 0 -10 11 -10 24 0
16 -7 26 -21 29 -21 6 -21 6 -2 31 30 42 43 33 43 -29z m-2729 28 c13 -16 12
-17 -3 -4 -10 7 -18 15 -18 17 0 8 8 3 21 -13z m310 0 c13 -16 12 -17 -3 -4
-10 7 -18 15 -18 17 0 8 8 3 21 -13z m584 -9 c9 -15 12 -23 6 -20 -17 11 -13
-24 9 -71 16 -35 16 -43 5 -43 -8 0 -15 4 -15 9 0 5 -7 17 -16 26 -16 15 -33
71 -34 108 0 26 25 21 45 -9z m-185 -61 l75 -78 -77 75 c-43 41 -78 76 -78 77
0 8 11 -3 80 -74z m816 15 l29 -33 -32 29 c-31 28 -38 36 -30 36 2 0 16 -15
33 -32z m-1175 5 c13 -16 12 -17 -3 -4 -10 7 -18 15 -18 17 0 8 8 3 21 -13z
m1949 13 c0 -2 -7 -7 -16 -10 -8 -3 -12 -2 -9 4 6 10 25 14 25 6z m-2235 -36
c10 -11 16 -20 13 -20 -3 0 -13 9 -23 20 -10 11 -16 20 -13 20 3 0 13 -9 23
-20z m2595 -20 c0 -25 -37 -64 -75 -79 l-30 -11 27 24 c15 13 34 41 42 61 16
37 36 40 36 5z m-478 -47 c-27 -32 -60 -67 -73 -78 -13 -11 8 15 46 58 37 42
70 77 73 77 2 0 -18 -26 -46 -57z m988 14 c-9 -7 -23 -23 -33 -36 -9 -14 -25
-25 -37 -26 -12 -1 -17 2 -12 9 5 6 16 23 25 39 12 19 26 27 45 27 23 -1 25
-2 12 -13z m-1539 -34 c13 -16 12 -17 -3 -4 -10 7 -18 15 -18 17 0 8 8 3 21
-13z m-1427 -59 c7 -18 0 -34 -15 -34 -5 0 -9 9 -9 20 0 11 -3 20 -7 20 -5 0
-16 14 -25 30 l-17 31 33 -26 c19 -14 37 -33 40 -41z m1650 14 c-4 -29 -8 -55
-10 -57 -1 -1 -8 16 -14 39 -8 31 -8 45 1 56 22 27 30 14 23 -38z m-870 -56
c35 -86 45 -127 27 -120 -4 2 -46 44 -92 93 -45 50 -60 68 -32 42 50 -48 50
-49 55 -23 3 14 1 26 -3 26 -5 0 -9 16 -9 35 0 19 4 35 9 35 4 0 25 -40 45
-88z m1723 66 c-3 -8 -6 -5 -6 6 -1 11 2 17 5 13 3 -3 4 -12 1 -19z m-1562 -8
c10 -11 16 -20 13 -20 -3 0 -13 9 -23 20 -10 11 -16 20 -13 20 3 0 13 -9 23
-20z m1153 -36 c-2 -19 1 -35 6 -37 6 -2 3 -15 -8 -31 -9 -15 -20 -26 -22 -23
-8 7 -7 70 0 105 10 42 29 30 24 -14z m-1638 -30 c37 -38 48 -54 34 -50 -13 4
-26 1 -34 -9 -7 -8 -16 -12 -21 -9 -5 3 -9 -7 -9 -22 0 -19 -3 -25 -10 -18
-10 10 -27 164 -19 164 3 0 29 -25 59 -56z m835 27 l20 -24 -22 14 c-13 8 -23
20 -23 28 0 8 1 12 3 10 1 -2 11 -15 22 -28z m546 -42 c-13 -11 -27 -19 -32
-19 -12 0 -11 32 1 65 l10 27 22 -27 22 -28 -23 -18z m-241 57 c0 -2 -8 -10
-17 -17 -16 -13 -17 -12 -4 4 13 16 21 21 21 13z m1237 -37 c-12 -23 -35 -51
-52 -62 -16 -12 -25 -15 -20 -7 25 34 87 110 90 110 2 0 -6 -18 -18 -41z
m-2787 -14 c13 -14 21 -25 18 -25 -2 0 -15 11 -28 25 -13 14 -21 25 -18 25 2
0 15 -11 28 -25z m1315 15 c13 0 30 -35 40 -86 5 -27 3 -31 -15 -30 -11 0 -20
5 -19 10 0 5 -7 13 -16 18 -10 6 -14 16 -10 29 5 15 1 22 -13 26 -14 3 -18 11
-15 24 4 13 11 18 20 15 8 -3 20 -6 28 -6z m1132 -22 c-3 -7 -5 -2 -5 12 0 14
2 19 5 13 2 -7 2 -19 0 -25z m-1223 -427 l-7 -421 -316 2 -316 3 313 2 312 3
0 195 c0 150 -3 195 -13 195 -7 0 -18 10 -26 23 -10 17 -11 19 0 10 35 -34 39
-18 39 165 0 162 7 259 17 249 2 -3 1 -194 -3 -426z m363 242 c-2 -32 -3 -6
-3 57 0 63 1 89 3 58 2 -32 2 -84 0 -115z m-122 97 c-3 -5 -12 -10 -18 -10 -7
0 -6 4 3 10 19 12 23 12 15 0z m-930 -20 c10 -11 16 -20 13 -20 -3 0 -13 9
-23 20 -10 11 -16 20 -13 20 3 0 13 -9 23 -20z m-395 -35 c13 -14 21 -25 18
-25 -2 0 -15 11 -28 25 -13 14 -21 25 -18 25 2 0 15 -11 28 -25z m845 -65 c41
-42 45 -49 23 -39 -16 7 -28 16 -28 21 0 4 -11 8 -25 8 -14 0 -25 -5 -25 -12
0 -27 -18 10 -25 50 -7 41 -6 43 11 34 11 -6 42 -34 69 -62z m884 67 c-2 -1
-13 -9 -24 -17 -19 -14 -19 -14 -6 3 7 9 18 17 24 17 6 0 8 -1 6 -3z m548 -79
c-2 -13 -4 -3 -4 22 0 25 2 35 4 23 2 -13 2 -33 0 -45z m191 35 c-9 -10 -19
-28 -22 -40 -4 -12 -21 -32 -38 -45 l-31 -22 24 35 c27 39 71 89 77 89 3 0 -2
-8 -10 -17z m-1982 -25 l29 -33 -32 29 c-31 28 -38 36 -30 36 2 0 16 -15 33
-32z m-425 -5 c13 -16 12 -17 -3 -4 -17 13 -22 21 -14 21 2 0 10 -8 17 -17z
m1599 2 c0 -8 -10 -20 -22 -26 -13 -6 -34 -21 -47 -33 -14 -12 -8 -1 13 27 39
48 56 58 56 32z m290 -40 c0 -23 -30 -65 -46 -65 -11 0 -10 9 6 40 21 41 40
53 40 25z m-1163 -17 c-3 -8 -6 -5 -6 6 -1 11 2 17 5 13 3 -3 4 -12 1 -19z
m-672 -8 c10 -11 16 -20 13 -20 -3 0 -13 9 -23 20 -10 11 -16 20 -13 20 3 0
13 -9 23 -20z m465 -35 c13 -14 21 -25 18 -25 -2 0 -15 11 -28 25 -13 14 -21
25 -18 25 2 0 15 -11 28 -25z m1127 -202 c-1 -43 -3 -8 -3 77 0 85 2 120 3 78
2 -43 2 -113 0 -155z m1676 220 c-23 -2 -64 -2 -90 0 -26 2 -7 3 42 3 50 0 71
-1 48 -3z m-1833 -27 c0 -2 -8 -10 -17 -17 -16 -13 -17 -12 -4 4 13 16 21 21
21 13z m-555 -36 c10 -11 16 -20 13 -20 -3 0 -13 9 -23 20 -10 11 -16 20 -13
20 3 0 13 -9 23 -20z m-360 -20 c10 -11 16 -20 13 -20 -3 0 -13 9 -23 20 -10
11 -16 20 -13 20 3 0 13 -9 23 -20z m172 -47 c-3 -10 -5 -4 -5 12 0 17 2 24 5
18 2 -7 2 -21 0 -30z m2163 34 c0 -2 -19 -21 -42 -42 l-43 -40 40 43 c36 39
45 47 45 39z m765 -17 c10 -11 16 -20 13 -20 -3 0 -13 9 -23 20 -10 11 -16 20
-13 20 3 0 13 -9 23 -20z m-3044 -37 c13 -16 12 -17 -3 -4 -10 7 -18 15 -18
17 0 8 8 3 21 -13z m50 -60 c13 -16 12 -17 -3 -4 -17 13 -22 21 -14 21 2 0 10
-8 17 -17z m3049 13 c0 -2 -8 -10 -17 -17 -16 -13 -17 -12 -4 4 13 16 21 21
21 13z m-610 -80 c0 -2 -7 -7 -16 -10 -8 -3 -12 -2 -9 4 6 10 25 14 25 6z
m355 -16 c3 -6 -1 -7 -9 -4 -18 7 -21 14 -7 14 6 0 13 -4 16 -10z m-708 -22
c-3 -8 -6 -5 -6 6 -1 11 2 17 5 13 3 -3 4 -12 1 -19z m-10 -100 c-2 -13 -4 -5
-4 17 -1 22 1 32 4 23 2 -10 2 -28 0 -40z m104 -255 c13 -16 12 -17 -3 -4 -10
7 -18 15 -18 17 0 8 8 3 21 -13z m825 -55 l29 -33 -32 29 c-31 28 -38 36 -30
36 2 0 16 -15 33 -32z m-3569 -400 c-1 -79 -3 -15 -3 142 0 157 2 221 3 143 2
-79 2 -207 0 -285z m-1040 280 c-3 -8 -6 -5 -6 6 -1 11 2 17 5 13 3 -3 4 -12
1 -19z m4710 -190 c-2 -24 -4 -7 -4 37 0 44 2 63 4 43 2 -21 2 -57 0 -80z
m-908 40 c-2 -2 -20 -16 -39 -33 l-35 -30 29 33 c17 17 34 32 40 32 5 0 7 -1
5 -2z m46 -18 c10 -11 16 -20 13 -20 -3 0 -13 9 -23 20 -10 11 -16 20 -13 20
3 0 13 -9 23 -20z m-115 -53 c0 -2 -10 -12 -22 -23 l-23 -19 19 23 c18 21 26
27 26 19z m201 -34 c13 -16 12 -17 -3 -4 -10 7 -18 15 -18 17 0 8 8 3 21 -13z
m-3588 0 c-29 -2 -78 -2 -110 0 -32 2 -8 3 52 3 61 0 87 -1 58 -3z m3342 -133
c10 -11 16 -20 13 -20 -3 0 -13 9 -23 20 -10 11 -16 20 -13 20 3 0 13 -9 23
-20z m935 -44 c0 -2 -8 -10 -17 -17 -16 -13 -17 -12 -4 4 13 16 21 21 21 13z
m-859 -33 c13 -16 12 -17 -3 -4 -10 7 -18 15 -18 17 0 8 8 3 21 -13z m276
-119 c-3 -3 -12 -4 -19 -1 -8 3 -5 6 6 6 11 1 17 -2 13 -5z m80 -10 c-3 -3
-12 -4 -19 -1 -8 3 -5 6 6 6 11 1 17 -2 13 -5z m190 0 c-3 -3 -12 -4 -19 -1
-8 3 -5 6 6 6 11 1 17 -2 13 -5z"/>
<path d="M3722 5998 c2 -25 8 -34 26 -36 15 -2 22 2 22 12 0 9 -4 16 -9 16 -5
0 -13 9 -16 20 -10 32 -27 23 -23 -12z"/>
</g>
</svg>
